<?xml version="1.0" encoding="utf-8"?>
<!-- Generator: Adobe Illustrator 25.4.1, SVG Export Plug-In . SVG Version: 6.00 Build 0)  -->
<svg version="1.1" id="Layer_1" xmlns="http://www.w3.org/2000/svg" xmlns:xlink="http://www.w3.org/1999/xlink" x="0px" y="0px"
	 viewBox="0 0 103 75.6" style="enable-background:new 0 0 103 75.6;" xml:space="preserve">
<style type="text/css">
	.st0{fill:#FFFFFF;}
	.st1{fill:#302353;}
</style>
<g>
	<path class="st0" d="M70.8,62.3v8.6h8.6v-8.6H70.8z M59.9,62.3h-8.6v8.6h8.6V62.3z M59.9,13.6V5.1h-8.6v8.6H59.9z M91.2,13.6h8.6
		V5.1h-8.6V13.6z M91.2,23.9v8.6h8.6v-8.6H91.2z M70.8,23.9v-8.6h-8.6v8.6H70.8z M70.8,34.2h-8.6v8.6h8.6V34.2z M88.8,34.2h8.6v-8.6
		h-8.6V34.2z M88.8,44.1v8.6h8.6v-8.6H88.8z M70.8,44.1v-8.6h-8.6v8.6H70.8z M70.8,53.7H59.9v17.1h10.9V53.7z M68.5,62.3V13.6H51.3
		v48.6C51.3,62.3,68.5,62.3,68.5,62.3z M59.9,22.2h31.3V5.1H59.9V22.2z M82.6,13.6v10.3h17.1V13.6H82.6z M91.2,15.3H70.6v17.1h20.6
		C91.2,32.5,91.2,15.3,91.2,15.3z M62.3,23.9v10.3h17.1V23.9C79.4,23.9,62.3,23.9,62.3,23.9z M70.8,42.8h18V25.6h-18
		C70.8,25.6,70.8,42.8,70.8,42.8z M80.3,34.2v9.9h17.1v-9.9H80.3z M88.8,35.5h-18v17.1h18V35.5z M62.3,44.1v18.2h17.1V44.1H62.3z
		 M101,13.6V5.1h-8.6v8.6H101z"/>
	<path class="st1" d="M70.8,62.3H59.9V13.6h31.3v10.3H70.6v10.3h18v9.9h-18v18.2H70.8z"/>
</g>
<g>
	<polygon class="st0" points="45.8,25.6 48.1,33.8 55.6,31.6 54.3,24.1 	"/>
	<polygon class="st0" points="36.1,28.2 27.6,29.5 29.1,39.1 38.5,36.6 	"/>
	<polygon class="st0" points="26.1,32.1 27.8,23.7 27.8,23.7 27.8,23.7 	"/>
	<polygon class="st0" points="32.7,33.3 31,41.7 31,41.7 31,41.7 	"/>
	<polygon class="st0" points="8.9,47.7 6.8,39.3 -0.5,41.1 0.4,48.6 	"/>
	<polygon class="st0" points="18.8,45.3 27.3,44.5 26.5,34.6 16.9,37 	"/>
	<polygon class="st0" points="30.6,43.6 32.1,35.3 32.1,35.3 32.1,35.3 	"/>
	<polygon class="st0" points="23.9,42.6 22.2,50.9 22.2,50.9 22.4,50.9 	"/>
	
		<rect x="35.9" y="18.3" transform="matrix(0.9625 -0.2711 0.2711 0.9625 -5.7644 12.1087)" class="st0" width="10.1" height="17.1"/>
	<path class="st0" d="M44.5,26.9c-0.4-2.6-1.5-5.8-4.3-8.6c-3-3-7.3-4.7-12.2-4.7v17.1c0.4,0,0.6,0,0.6,0c-0.2,0-0.2-0.2-0.4-0.4
		c-0.2-0.2-0.2-0.4-0.4-0.4c0,0,0-0.2-0.2-0.4L44.5,26.9z"/>
	<path class="st0" d="M28,13.6c-7.3,0-15.2,4.9-15.2,13.7h17.1c0,1.5-0.6,2.6-1.3,3c-0.6,0.4-0.9,0.4-0.6,0.4V13.6z"/>
	<path class="st0" d="M12.8,27.3c0,3,1.1,6.4,3.6,9c2.4,2.6,5.6,3.6,8.1,4.1l3-16.9c-0.6-0.2,0-0.2,0.9,0.6c0.4,0.4,0.9,1.1,1.1,1.7
		c0.2,0.6,0.2,1.1,0.2,1.5C29.7,27.3,12.8,27.3,12.8,27.3z"/>
	
		<rect x="20.8" y="29.3" transform="matrix(0.1862 -0.9825 0.9825 0.1862 -8.1526 55.3263)" class="st0" width="17.1" height="6.6"/>
	<path class="st0" d="M31,41.7c3.2,0.6,4.9,1.7,5.8,2.8c0.9,0.9,1.3,2.1,1.3,3.4h17.1c0-11.8-8.6-20.8-21-22.9L31,41.7z"/>
	<path class="st0" d="M38.1,47.9c0,2.4-2.1,6.9-9.4,6.9v17.1c15.9,0,26.6-11.1,26.6-24C55.2,47.9,38.1,47.9,38.1,47.9z"/>
	<path class="st0" d="M28.8,54.8c-4.7,0-7.3-1.5-8.8-2.8c-1.5-1.5-2.4-3.4-2.6-4.9L0.4,48.8c0.4,5.4,3,11.1,7.7,15.6
		c4.9,4.7,12,7.5,20.6,7.5V54.8H28.8z"/>
	
		<rect x="8.7" y="37.8" transform="matrix(0.9721 -0.2346 0.2346 0.9721 -10.5024 4.5396)" class="st0" width="10.3" height="17.1"/>
	<path class="st0" d="M10.2,46.2c0.4,3.9,1.9,8.1,5.4,11.4c3.4,3.2,8.1,4.9,13.3,4.9V45.3c-0.9,0-1.3-0.2-1.5-0.2c-0.2,0-0.2,0,0,0
		c0.2,0.2,0,0.2,0-0.4L10.2,46.2z"/>
	<path class="st0" d="M28.8,62.3c3.4,0,7.1-0.9,10.3-3.2c3.2-2.6,5.1-6.2,5.1-10.5H27.1c0-0.4,0.2-1.1,0.4-1.7
		c0.4-0.6,0.9-1.1,1.1-1.3c0.6-0.4,1.1-0.2,0.2-0.2C28.8,45.3,28.8,62.3,28.8,62.3z"/>
	<path class="st0" d="M44.3,48.6c0-8.4-7.1-12.2-12.2-13.3l-3.2,16.9c0.4,0,0.2,0.2-0.4-0.4c-0.2-0.2-0.6-0.6-0.9-1.3
		c-0.2-0.6-0.4-1.3-0.4-1.7h17.1V48.6z"/>
	
		<rect x="18.7" y="39.8" transform="matrix(0.1825 -0.9832 0.9832 0.1825 -20.1722 62.1363)" class="st0" width="17.1" height="6.9"/>
	<path class="st0" d="M25.4,34c-4.9-0.9-6.2-3.6-6.2-5.8H2.1c0,12,8.8,20.6,20.1,22.7L25.4,34z"/>
	<path class="st0" d="M19.2,28.2c0-3.4,3-7.1,8.8-7.1V4C15.1,4,2.1,13.2,2.1,28.2H19.2z"/>
	<path class="st0" d="M28,21.1c4.3,0,6.2,1.3,7.3,2.1c1.1,1.1,1.7,2.4,1.9,3.9l16.9-3c-0.9-4.3-3-9.4-7.5-13.5S35.7,4,27.8,4v17.1
		H28z"/>
	<path class="st1" d="M45.8,25.6l-9.6,2.8c-0.4-2.4-2.1-6-8.1-6c-4.1,0-6.6,2.6-6.6,5.1c0,2.4,1.5,4.1,4.7,4.7l6.4,1.3
		c9.2,1.7,14.1,7.7,14.1,14.6c0,7.7-6.4,15.4-18,15.4c-13.5,0-19.3-8.8-19.9-15.6l9.9-2.4c0.4,4.5,3.4,8.4,10.1,8.4
		c4.3,0,6.9-2.1,6.9-5.1c0-2.6-1.9-4.3-5.1-4.9l-6.6-1.3c-8.1-1.5-13.3-7.1-13.3-14.4c0-9.2,8.1-15.6,17.4-15.6
		C40.2,12.6,44.7,19.8,45.8,25.6z"/>
</g>
</svg>
