<svg width="392" height="32" viewBox="0 0 392 32" fill="none" xmlns="http://www.w3.org/2000/svg">
<path d="M12.9378 31.42C11.4398 31.42 9.96981 31.231 8.52781 30.853C7.08581 30.475 5.76981 29.908 4.57981 29.152C3.38981 28.396 2.40281 27.451 1.61881 26.317C0.848813 25.183 0.386813 23.853 0.232813 22.327H6.51181C6.72181 23.251 7.12081 24.028 7.70881 24.658C8.29681 25.288 9.03881 25.771 9.93481 26.107C10.8308 26.443 11.8248 26.611 12.9168 26.611C14.0368 26.611 15.0588 26.471 15.9828 26.191C16.9068 25.911 17.6488 25.491 18.2088 24.931C18.7688 24.357 19.0488 23.643 19.0488 22.789C19.0488 22.019 18.8178 21.389 18.3558 20.899C17.9078 20.409 17.2988 20.01 16.5288 19.702C15.7588 19.394 14.8838 19.142 13.9038 18.946L8.65381 17.875C6.35781 17.441 4.53781 16.531 3.19381 15.145C1.84981 13.745 1.15681 11.883 1.11481 9.559C1.10081 7.655 1.60481 6.01 2.62681 4.624C3.66281 3.224 5.06281 2.146 6.82681 1.39C8.60481 0.633998 10.5928 0.255998 12.7908 0.255998C15.4088 0.255998 17.6068 0.668998 19.3848 1.495C21.1768 2.307 22.5348 3.413 23.4588 4.813C24.3968 6.199 24.8798 7.746 24.9078 9.454H18.7548C18.6428 8.39 18.3208 7.543 17.7888 6.913C17.2568 6.283 16.5708 5.828 15.7308 5.548C14.9048 5.268 13.9598 5.128 12.8958 5.128C12.0838 5.128 11.3418 5.219 10.6698 5.401C10.0118 5.583 9.45181 5.842 8.98981 6.178C8.52781 6.5 8.17081 6.885 7.91881 7.333C7.66681 7.781 7.54081 8.285 7.54081 8.845C7.54081 9.727 7.83481 10.441 8.42281 10.987C9.01081 11.533 10.1098 11.981 11.7198 12.331L16.9278 13.402C18.7898 13.766 20.2668 14.305 21.3588 15.019C22.4648 15.733 23.2908 16.538 23.8368 17.434C24.3968 18.33 24.7608 19.247 24.9288 20.185C25.1108 21.109 25.2018 21.963 25.2018 22.747C25.2018 24.385 24.6838 25.862 23.6478 27.178C22.6258 28.48 21.1978 29.516 19.3638 30.286C17.5298 31.042 15.3878 31.42 12.9378 31.42ZM43.0308 31.42C40.1608 31.42 37.6758 30.797 35.5758 29.551C33.4898 28.291 31.8728 26.506 30.7248 24.196C29.5908 21.872 29.0238 19.1 29.0238 15.88C29.0238 12.646 29.5978 9.86 30.7458 7.522C31.9078 5.184 33.5388 3.385 35.6388 2.125C37.7388 0.850998 40.2028 0.213998 43.0308 0.213998C45.8448 0.213998 48.2948 0.843999 50.3808 2.104C52.4668 3.364 54.0768 5.163 55.2108 7.501C56.3588 9.839 56.9328 12.632 56.9328 15.88C56.9328 19.086 56.3658 21.851 55.2318 24.175C54.1118 26.499 52.5088 28.291 50.4228 29.551C48.3368 30.797 45.8728 31.42 43.0308 31.42ZM43.0308 26.38C44.5148 26.38 45.7958 26.03 46.8738 25.33C47.9658 24.616 48.8058 23.496 49.3938 21.97C49.9818 20.43 50.2758 18.428 50.2758 15.964C50.2758 13.43 49.9748 11.379 49.3728 9.811C48.7848 8.243 47.9448 7.095 46.8528 6.367C45.7748 5.625 44.5008 5.254 43.0308 5.254C41.5608 5.254 40.2798 5.625 39.1878 6.367C38.0958 7.095 37.2488 8.25 36.6468 9.832C36.0448 11.4 35.7438 13.444 35.7438 15.964C35.7438 18.442 36.0448 20.444 36.6468 21.97C37.2488 23.496 38.0958 24.616 39.1878 25.33C40.2798 26.03 41.5608 26.38 43.0308 26.38ZM62.361 0.633998H68.535V25.813H81.723V31H62.361V0.633998ZM109.996 19.429C109.996 21.879 109.597 24.007 108.799 25.813C108.001 27.605 106.706 28.991 104.914 29.971C103.136 30.937 100.777 31.42 97.8369 31.42C94.8829 31.42 92.5169 30.93 90.7389 29.95C88.9609 28.956 87.6729 27.549 86.8749 25.729C86.0909 23.909 85.6989 21.739 85.6989 19.219V0.633998H91.9359V19.681C91.9359 21.949 92.4819 23.608 93.5739 24.658C94.6659 25.694 96.0869 26.212 97.8369 26.212C98.9989 26.212 100.028 25.988 100.924 25.54C101.82 25.078 102.52 24.371 103.024 23.419C103.542 22.453 103.801 21.207 103.801 19.681V0.633998H109.996V19.429ZM116.091 31V0.633998H124.995L131.946 22.285L138.96 0.633998H147.843V31H141.648V7.774L134.34 31H129.531L122.265 7.879V31H116.091ZM163.547 0.633998H184.211L184.19 5.758H169.721V13.381H182.258V18.4H169.721V31H163.547V0.633998ZM189.304 0.633998H195.415V31H189.304V0.633998ZM222.153 0.633998H228.285V31H222.762L208.335 10.105V31H202.224V0.633998H208.293L222.153 20.731V0.633998ZM232.831 31L243.709 0.633998H250.177L261.034 31H254.923L252.445 23.965H241.525L238.984 31H232.831ZM242.89 18.61H250.975L246.964 6.556L242.89 18.61ZM285.522 0.633998H291.654V31H286.131L271.704 10.105V31H265.593V0.633998H271.662L285.522 20.731V0.633998ZM310.816 0.213998C313.098 0.213998 315.128 0.675998 316.906 1.6C318.698 2.51 320.14 3.756 321.232 5.338C322.338 6.92 322.989 8.705 323.185 10.693H316.759C316.563 9.643 316.206 8.712 315.688 7.9C315.17 7.074 314.491 6.43 313.651 5.968C312.811 5.492 311.803 5.254 310.627 5.254C309.213 5.254 307.995 5.597 306.973 6.283C305.951 6.969 305.167 8.075 304.621 9.601C304.075 11.127 303.802 13.143 303.802 15.649C303.802 19.429 304.404 22.166 305.608 23.86C306.826 25.54 308.499 26.38 310.627 26.38C311.803 26.38 312.811 26.114 313.651 25.582C314.491 25.036 315.17 24.322 315.688 23.44C316.206 22.544 316.563 21.564 316.759 20.5H323.185C323.003 21.942 322.653 23.321 322.135 24.637C321.617 25.939 320.882 27.101 319.93 28.123C318.978 29.145 317.753 29.95 316.255 30.538C314.757 31.126 312.944 31.42 310.816 31.42C307.988 31.42 305.545 30.762 303.487 29.446C301.429 28.13 299.84 26.282 298.72 23.902C297.614 21.522 297.061 18.743 297.061 15.565C297.061 12.373 297.614 9.636 298.72 7.354C299.826 5.058 301.408 3.294 303.466 2.062C305.524 0.829999 307.974 0.213998 310.816 0.213998ZM328.593 0.633998H334.704V31H328.593V0.633998ZM339.266 31L350.144 0.633998H356.612L367.469 31H361.358L358.88 23.965H347.96L345.419 31H339.266ZM349.325 18.61H357.41L353.399 6.556L349.325 18.61ZM372.029 0.633998H378.203V25.813H391.391V31H372.029V0.633998Z" fill="#302353"/>
</svg>
