<svg xmlns="http://www.w3.org/2000/svg" viewBox="0 0 44.22 7.4"><path d="M3.01202 5.92818c.23071 0 .45261-.0378.66957-.11218.2159-.0748.40887-.19932.5782-.37218.16828-.1725.30445-.399.405-.67769.10194-.27834.1531-.61736.1531-1.01847 0-.36689-.03634-.69709-.1069-.99272-.0709-.29598-.18732-.54857-.3503-.75882-.16228-.2099-.37677-.37183-.64347-.48366-.2674-.11218-.59725-.16792-.98919-.16792h-1.1356v4.58364zM3.1242.0001c.46637 0 .90029.0744 1.30316.22437.40217.14887.75.37394 1.04387.6717.29422.29914.52388.67274.69039 1.12041.16545.44838.2487.97437.2487 1.57868 0 .52987-.06844 1.01882-.2032 1.46685-.13546.44838-.33937.83538-.61383 1.161-.2734.32596-.61524.58243-1.02411.76975-.40958.18627-.89077.27905-1.44498.27905H0V.00011m9.88222 4.8225c-.09102.03-.18944.0568-.29457.0762-.10477.0212-.21484.0374-.32984.0511-.1143.0138-.22966.03-.34467.0512-.10795.0194-.21484.0473-.31961.0822-.10478.0335-.19615.0794-.2734.13653-.07833.0582-.14041.13123-.18769.21943-.04727.0885-.07055.19967-.07055.3362 0 .1284.02328.23671.07055.32561.04727.0882.11148.15734.19262.2092.08114.0501.17604.0857.2847.1069.10724.0197.21907.0303.33407.0303.28399 0 .50377-.0476.65864-.14253.15593-.096.27058-.2092.34537-.34149.07408-.13335.11994-.26634.13688-.40287.01658-.13547.02505-.24412.02505-.3256v-.5394c-.06033.054-.13653.097-.22755.127zm-2.8455-2.04258c.14887-.2233.33831-.40323.56797-.53869.23036-.13653.4886-.23319.77576-.29105.28786-.0575.57679-.0864.86748-.0864.26388 0 .53128.019.80151.0561.27023.0381.51717.11007.73942.21873.22331.10865.4064.26.54822.45367.14217.19332.21272.4491.21272.7687v2.74003c0 .23777.01411.46531.04092.68262.02681.21767.07373.3796.14217.48825h-1.46085c-.02646-.0811-.04904-.16405-.06562-.24977a2.2221 2.2221 0 01-.03528-.25965c-.23001.23884-.50024.40464-.81174.4999-.31045.0945-.62865.14181-.9532.14181-.25048 0-.48296-.03-.69992-.0917-.21555-.0603-.40534-.15558-.56762-.2847-.16228-.1284-.28928-.29174-.38065-.48895-.09102-.19685-.13652-.43109-.13652-.70238 0-.2988.05256-.54504.15734-.73836.10407-.19403.23989-.34854.40499-.46355.1658-.1157.3549-.20249.56797-.26035.21343-.0571.42792-.103.64452-.13688.2159-.0339.42934-.0617.63924-.0815.20849-.0208.3951-.0508.55739-.0917.16192-.0409.29069-.10019.38523-.1785.09454-.0783.13864-.19157.13159-.34114 0-.15628-.02505-.27976-.0762-.37148-.0508-.0921-.11783-.16333-.20215-.21449-.08537-.0508-.18309-.085-.29386-.1023-.11183-.0166-.23177-.025-.36054-.025-.28363 0-.50694.0614-.66992.18344-.16193.12242-.25647.32527-.28328.61066H6.78377c.02046-.33937.10407-.62018.25294-.84525m6.42359 4.4918l-1.79493-5.2652h1.5113l1.10526 3.5955h.0194l1.1063-3.5955h1.42981l-1.77517 5.2652M18.6043 2.0066v5.26521h-1.44004v-5.2652zm-1.44004-.81492V0h1.44004v1.19168m1.97686 4.77164c.0642.11218.1464.20355.24871.27552.1002.0716.21766.12312.34925.15734.13194.0346.26917.0512.41134.0512.1009 0 .20743-.0116.31891-.0356.11183-.0236.21343-.0607.3041-.11254.0914-.0504.16686-.11818.22824-.20355.0603-.0847.091-.1919.091-.32032 0-.2173-.14394-.37994-.43075-.48895-.28645-.10936-.68756-.2173-1.2019-.32597-.20885-.0483-.41382-.1037-.61349-.16792-.19897-.0642-.37712-.14958-.53269-.25506-.15523-.10548-.2801-.23742-.37465-.39723-.0945-.1598-.14217-.35489-.14217-.58525 0-.34043.0663-.61807.19826-.83573.13123-.21696.30515-.38877.52211-.51365.2159-.12594.45896-.21413.73025-.26493.26952-.0515.5468-.0769.83114-.0769.2847 0 .55986.0272.82691.0822.2667.0543.50518.1457.71403.27375.2099.13018.38382.30022.52211.51471.139.21378.22225.48401.24906.80997H22.4625c-.0208-.27869-.12594-.46672-.31432-.5655-.18944-.0984-.41275-.1478-.66993-.1478-.0811 0-.16862.006-.26317.0155-.0953.01-.18168.0324-.25858.066-.0783.0342-.14359.0829-.19827.14815-.054.0646-.0811.15135-.0811.26 0 .12841.0476.23425.14181.31574.0945.0811.21837.14711.37042.19791.1524.0515.32632.0974.52282.13793.1958.0406.39511.085.59725.13265.2092.0473.41381.10512.61277.17392.20003.0667.37818.15663.53376.26846.15592.1129.27975.25224.375.41875.0945.1658.14146.37147.14146.61524 0 .34678-.0691.63712-.20743.87101-.13935.2346-.31926.42333-.54293.56515-.22295.14323-.478.24342-.76552.30057-.28787.0579-.57926.0864-.87736.0864-.3041 0-.60078-.0303-.89147-.0921-.29104-.06-.54928-.16228-.77646-.30445-.22649-.14216-.4124-.33196-.55739-.56515-.1457-.23459-.22472-.52846-.23883-.88194h1.36983c0 .15663.0318.2907.0963.40252m11.84127-.70261c.0409.20002.11007.37994.20743.5401.0984.15981.22931.28681.3916.38171.16226.0945.36405.14217.60712.14217.24447 0 .44802-.0476.61418-.14217.16616-.0949.2974-.2219.39511-.3817.0984-.16017.16687-.34009.20885-.5401.0402-.20039.0603-.4057.0603-.6163 0-.21027-.0201-.4177-.0603-.62125-.042-.2039-.11042-.38383-.20885-.5401-.0977-.15593-.22895-.28293-.3951-.3817-.16617-.0988-.36972-.14783-.61419-.14783-.24307 0-.44486.049-.60713.14782-.16228.0988-.29316.22578-.39159.3817-.0974.15628-.1665.3362-.20743.54011-.0399.20355-.0614.41098-.0614.62124 0 .21061.0215.41592.0614.6163zm-1.30845-1.76248c.1277-.34219.3108-.63464.54821-.87594.23601-.24025.52035-.42722.85161-.55986.33055-.13265.7038-.19862 1.11478-.19862.41345 0 .7874.066 1.12077.19862.3362.13264.6202.31961.85725.55986.23672.2413.41945.53375.54822.87594.12841.34326.19191.72461.19191 1.14618 0 .42121-.0635.80116-.1919 1.14053-.12878.34008-.3115.63006-.54823.87171-.23706.2406-.52105.4258-.85725.55422-.33337.12946-.70732.19332-1.12077.19332-.41099 0-.78423-.0639-1.11478-.19332-.33126-.12842-.6156-.31362-.8516-.55422-.23743-.24165-.42052-.53163-.54822-.8717-.1284-.33938-.19297-.71933-.19297-1.14054 0-.42157.0646-.80292.19297-1.14618m5.75092 3.77374h1.43967V.00022H36.8649zM40.47645.00004v3.90137l1.81575-1.89477h1.70321l-1.97767 1.93534 2.20098 3.32987h-1.74449l-1.44039-2.35197-.55739.5394v1.81257h-1.43969V.00005m-11 3.3991c.18203 0 .35666-.0134.52493-.0406.16828-.0268.3168-.0794.4438-.15699.12841-.0776.22966-.18697.30797-.32914.0769-.14076.11642-.32632.11642-.55668 0-.22895-.0395-.41522-.11642-.55668-.0783-.14217-.17956-.25189-.30797-.3295-.127-.0773-.27552-.12947-.4438-.15698-.16827-.0268-.3429-.0406-.52493-.0406h-.95567V3.3991zM28.47103.0012c.4505 0 .83397.0656 1.15076.19685.3161.13194.57291.30516.77117.52212.19897.21554.34361.46178.43357.73836.0914.27693.13687.56374.13687.86078 0 .29033-.0455.57538-.13687.85513-.09.28046-.2346.52846-.43357.74436-.19826.21555-.45508.39017-.77117.52176-.31679.13123-.70026.19756-1.15076.19756H27.0811v2.63454h-1.59103V.0012" fill="#064d7a"/></svg>