<svg height="46px" version="1.1" viewBox="0 0 184 46" width="184px" xmlns="http://www.w3.org/2000/svg" xmlns:xlink="http://www.w3.org/1999/xlink">
<title>Logo</title>
<g fill="none" fill-rule="evenodd" id="Logo" stroke="none" stroke-width="1">
<g fill="#333F48" fill-rule="nonzero" id="Hausfeld_ForTheChallenge_Logo_RGB_Grey">
<g id="Group">
<path d="M173.24507,45.7408451 L181.343662,45.7408451 L181.343662,44.056338 L175.188732,44.056338 L175.188732,41.1408451 L180.630986,41.1408451 L180.630986,39.456338 L175.188732,39.456338 L175.188732,36.6704225 L181.278873,36.6704225 L181.278873,34.9859155 L173.24507,34.9859155 L173.24507,45.7408451 Z M165.729577,45.9352113 C167.673239,45.9352113 169.16338,45.1577465 170.264789,44.2507042 L170.264789,39.715493 L165.664789,39.715493 L165.664789,41.3352113 L168.450704,41.3352113 L168.450704,43.343662 C167.802817,43.8619718 166.830986,44.1859155 165.859155,44.1859155 C163.656338,44.1859155 162.166197,42.5661972 162.166197,40.2985915 L162.166197,40.2985915 C162.166197,38.2253521 163.656338,36.4760563 165.664789,36.4760563 C167.025352,36.4760563 167.867606,36.9295775 168.709859,37.6422535 L169.940845,36.2169014 C168.839437,35.2450704 167.673239,34.7267606 165.794366,34.7267606 C162.55493,34.7267606 160.222535,37.2535211 160.222535,40.2985915 L160.222535,40.2985915 C160.092958,43.5380282 162.360563,45.9352113 165.729577,45.9352113 M147.847887,45.7408451 L149.726761,45.7408451 L149.726761,38.0309859 L155.687324,45.7408451 L157.242254,45.7408451 L157.242254,34.9211268 L155.36338,34.9211268 L155.36338,42.371831 L149.597183,34.9211268 L147.847887,34.9211268 L147.847887,45.7408451 Z M137.028169,45.7408451 L145.126761,45.7408451 L145.126761,44.056338 L138.971831,44.056338 L138.971831,41.1408451 L144.414085,41.1408451 L144.414085,39.456338 L138.971831,39.456338 L138.971831,36.6704225 L145.061972,36.6704225 L145.061972,34.9859155 L137.028169,34.9859155 L137.028169,45.7408451 Z M126.921127,45.7408451 L134.501408,45.7408451 L134.501408,43.9915493 L128.8,43.9915493 L128.8,34.9211268 L126.921127,34.9211268 L126.921127,45.7408451 L126.921127,45.7408451 Z M116.814085,45.7408451 L124.394366,45.7408451 L124.394366,43.9915493 L118.692958,43.9915493 L118.692958,34.9211268 L116.814085,34.9211268 L116.814085,45.7408451 L116.814085,45.7408451 Z M106.901408,41.4647887 L108.780282,37.1239437 L110.659155,41.4647887 L106.901408,41.4647887 Z M103.143662,45.7408451 L105.087324,45.7408451 L106.188732,43.1492958 L111.307042,43.1492958 L112.408451,45.7408451 L114.416901,45.7408451 L109.687324,34.856338 L107.938028,34.856338 L103.143662,45.7408451 Z M91.8056338,45.7408451 L93.684507,45.7408451 L93.684507,41.2056338 L98.8676056,41.2056338 L98.8676056,45.7408451 L100.746479,45.7408451 L100.746479,34.9211268 L98.8676056,34.9211268 L98.8676056,39.3915493 L93.684507,39.3915493 L93.684507,34.9211268 L91.8056338,34.9211268 L91.8056338,45.7408451 Z M84.9380282,45.9352113 C86.9464789,45.9352113 88.1774648,45.2225352 89.343662,44.056338 L88.1126761,42.7605634 C87.2056338,43.6028169 86.3633803,44.1859155 85.0028169,44.1859155 C82.9295775,44.1859155 81.4394366,42.4366197 81.4394366,40.3633803 L81.4394366,40.3633803 C81.4394366,38.2253521 82.9295775,36.5408451 85.0028169,36.5408451 C86.2338028,36.5408451 87.1408451,37.0591549 88.0478873,37.9014085 L89.2788732,36.4760563 C88.2422535,35.5042254 87.0112676,34.7915493 85.0676056,34.7915493 C81.828169,34.7915493 79.4957746,37.3183099 79.4957746,40.3633803 L79.4957746,40.3633803 C79.4309859,43.4732394 81.7633803,45.9352113 84.9380282,45.9352113 M63.8816901,45.7408451 L71.9802817,45.7408451 L71.9802817,44.056338 L65.8253521,44.056338 L65.8253521,41.1408451 L71.2676056,41.1408451 L71.2676056,39.456338 L65.8253521,39.456338 L65.8253521,36.6704225 L71.915493,36.6704225 L71.915493,34.9859155 L63.8816901,34.9859155 L63.8816901,45.7408451 Z M51.6366197,45.7408451 L53.515493,45.7408451 L53.515493,41.2056338 L58.6985915,41.2056338 L58.6985915,45.7408451 L60.5774648,45.7408451 L60.5774648,34.9211268 L58.6985915,34.9211268 L58.6985915,39.3915493 L53.515493,39.3915493 L53.515493,34.9211268 L51.6366197,34.9211268 L51.6366197,45.7408451 Z M43.7323944,45.7408451 L45.6112676,45.7408451 L45.6112676,36.6704225 L49.0450704,36.6704225 L49.0450704,34.9211268 L40.2985915,34.9211268 L40.2985915,36.6704225 L43.7323944,36.6704225 L43.7323944,45.7408451 Z M26.1098592,40.2985915 L26.1098592,36.6704225 L28.8957746,36.6704225 C30.3211268,36.6704225 31.1633803,37.3183099 31.1633803,38.484507 L31.1633803,38.484507 C31.1633803,39.5859155 30.3211268,40.2985915 28.9605634,40.2985915 L26.1098592,40.2985915 L26.1098592,40.2985915 Z M24.2309859,45.7408451 L26.1098592,45.7408451 L26.1098592,41.9830986 L28.5070423,41.9830986 L31.1633803,45.7408451 L33.3661972,45.7408451 L30.4507042,41.6591549 C31.9408451,41.2056338 33.0422535,40.1690141 33.0422535,38.4197183 L33.0422535,38.4197183 C33.0422535,37.4478873 32.7183099,36.6704225 32.1352113,36.0873239 C31.4225352,35.4394366 30.3859155,34.9859155 29.0253521,34.9859155 L24.2309859,34.9859155 L24.2309859,45.7408451 L24.2309859,45.7408451 Z M15.743662,44.1859155 C13.6056338,44.1859155 12.0507042,42.4366197 12.0507042,40.3633803 L12.0507042,40.3633803 C12.0507042,38.2901408 13.5408451,36.5408451 15.6788732,36.5408451 C17.8169014,36.5408451 19.371831,38.2901408 19.371831,40.3633803 L19.371831,40.3633803 C19.371831,42.4366197 17.8816901,44.1859155 15.743662,44.1859155 M15.743662,45.9352113 C19.0478873,45.9352113 21.3802817,43.4084507 21.3802817,40.3633803 L21.3802817,40.3633803 C21.3802817,37.3183099 19.0478873,34.7915493 15.743662,34.7915493 C12.4394366,34.7915493 10.1070423,37.3183099 10.1070423,40.3633803 L10.1070423,40.3633803 C10.1070423,43.4084507 12.3746479,45.9352113 15.743662,45.9352113 M0,45.7408451 L1.87887324,45.7408451 L1.87887324,41.3352113 L7.32112676,41.3352113 L7.32112676,39.5859155 L1.87887324,39.5859155 L1.87887324,36.6056338 L8.03380282,36.6056338 L8.03380282,34.856338 L0,34.856338 L0,45.7408451 Z" id="Shape"></path>
<path d="M5.11830986,9.26478873 L5.11830986,9.26478873 L5.11830986,0.323943662 L0.129577465,0.323943662 L0.129577465,22.8704225 L5.11830986,22.8704225 L5.11830986,9.26478873 Z M70.1014085,13.0225352 L70.1014085,0.323943662 L65.1126761,0.323943662 L65.1126761,13.2169014 C65.1126761,16.7802817 63.2985915,18.5943662 60.2535211,18.5943662 C57.2084507,18.5943662 55.3943662,16.715493 55.3943662,13.0225352 L55.3943662,0.323943662 L50.4056338,0.323943662 L50.4056338,13.2169014 C50.4056338,19.8253521 54.0985915,23.2591549 60.1887324,23.2591549 C66.2788732,23.2591549 70.1014085,19.8901408 70.1014085,13.0225352 M92.0647887,16.1971831 L92.0647887,16.1971831 C92.0647887,12.1802817 89.4732394,10.5605634 84.9380282,9.3943662 C81.0507042,8.42253521 80.0788732,7.90422535 80.0788732,6.41408451 L80.0788732,6.34929577 C80.0788732,5.24788732 81.0507042,4.4056338 82.9943662,4.4056338 C84.743662,4.4056338 86.5577465,5.11830986 88.4366197,6.34929577 L91.2225352,2.72112676 C88.8901408,0.971830986 86.1690141,0 82.9943662,0 C78.3943662,0 75.1549296,2.72112676 75.1549296,6.8028169 L75.1549296,6.86760563 C75.1549296,11.3380282 78.0704225,12.5690141 82.6056338,13.7352113 C86.3633803,14.7070423 87.1408451,15.3549296 87.1408451,16.5859155 L87.1408451,16.6507042 C87.1408451,17.9464789 85.9098592,18.7887324 83.9014085,18.7887324 C81.3746479,18.7887324 79.2366197,17.7521127 77.228169,16.1323944 L74.4422535,19.7605634 C77.0985915,22.028169 80.4676056,23.1943662 83.771831,23.1943662 C88.6309859,23.1943662 92.0647887,20.6676056 92.0647887,16.1971831 M102.042254,4.85915493 L114.222535,4.85915493 L114.222535,0.323943662 L97.0535211,0.323943662 L97.0535211,22.8704225 L102.042254,22.8704225 L102.042254,14.1239437 L108.974648,14.1239437 L112.602817,9.58873239 L101.977465,9.58873239 L101.977465,4.85915493 L102.042254,4.85915493 Z M119.535211,22.8704225 L136.704225,22.8704225 L136.704225,18.4647887 L124.459155,18.4647887 L124.459155,13.7352113 L131.456338,13.7352113 L135.019718,9.32957746 L124.459155,9.32957746 L124.459155,4.72957746 L136.509859,4.72957746 L136.509859,0.323943662 L119.535211,0.323943662 L119.535211,22.8704225 Z M154.84507,22.8704225 L158.538028,18.3352113 L147.329577,18.3352113 L147.329577,0.323943662 L142.340845,0.323943662 L142.340845,22.8704225 L154.84507,22.8704225 Z M178.492958,11.6619718 C178.492958,15.6788732 175.771831,18.4 171.690141,18.4 L167.867606,18.4 L167.867606,4.7943662 L171.690141,4.7943662 C175.707042,4.7943662 178.492958,7.58028169 178.492958,11.6619718 L178.492958,11.6619718 Z M183.676056,11.5971831 L183.676056,11.5971831 C183.676056,5.18309859 178.752113,0.323943662 171.690141,0.323943662 L162.878873,0.323943662 L162.878873,22.8704225 L171.690141,22.8704225 C178.752113,22.8704225 183.676056,17.9464789 183.676056,11.5971831" id="Shape2"></path>
<polygon id="Path2" points="31.0985915 17.8169014 40.6225352 17.8169014 42.6957746 22.8704225 47.8788732 22.8704225 38.2253521 0.129577465 33.6253521 0.129577465 23.971831 22.8704225 29.0253521 22.8704225 32.8478873 13.4112676 32.8478873 13.4112676 35.8929577 6.09014085 38.8732394 13.4112676 35.115493 13.4112676"></polygon>
<polyline id="Path3" points="14.1887324 13.8 14.1887324 22.8704225 19.1774648 22.8704225 19.1774648 0.323943662 14.1887324 0.323943662 14.1887324 9.26478873 8.81126761 9.26478873 5.11830986 13.8 14.1887324 13.8"></polyline>
</g>
</g>
</g>
</svg>