<svg xmlns="http://www.w3.org/2000/svg" fill="none" viewBox="0 0 104 85">
<g clip-path="url(#clip0_702_580)">
<path d="M100.17 12.5H98.93V23.05L90.43 12.5H88.88V24.51H90.12V13.94L98.6 24.51H100.17V12.5ZM81.49 13.67C82.14 13.91 82.69 14.26 83.15 14.71C83.61 15.17 83.95 15.72 84.19 16.37C84.43 17.02 84.55 17.73 84.55 18.51C84.55 19.29 84.42 19.97 84.17 20.61C83.92 21.25 83.56 21.8 83.1 22.27C82.64 22.74 82.09 23.09 81.44 23.33C80.8 23.58 80.1 23.7 79.34 23.7C78.58 23.7 77.88 23.57 77.24 23.32C76.6 23.07 76.05 22.71 75.58 22.25C75.11 21.79 74.76 21.23 74.52 20.58C74.27 19.93 74.15 19.22 74.15 18.47C74.15 17.72 74.27 17.02 74.52 16.38C74.77 15.74 75.12 15.2 75.58 14.74C76.04 14.28 76.59 13.93 77.24 13.69C77.88 13.44 78.59 13.32 79.35 13.32C80.11 13.32 80.83 13.44 81.47 13.68H81.49V13.67ZM76.8 12.69C76 12.99 75.32 13.42 74.74 13.98C74.16 14.54 73.72 15.2 73.4 15.97C73.08 16.74 72.92 17.57 72.92 18.45C72.92 19.33 73.08 20.21 73.39 20.99C73.7 21.77 74.14 22.44 74.71 23C75.28 23.56 75.96 23.99 76.76 24.3C77.56 24.61 78.42 24.76 79.34 24.76C80.26 24.76 81.11 24.62 81.9 24.33C82.7 24.04 83.37 23.63 83.93 23.11C84.49 22.58 84.94 21.91 85.28 21.09C85.62 20.27 85.78 19.45 85.78 18.61C85.78 17.69 85.63 16.83 85.32 16.04C85.01 15.25 84.58 14.58 84.01 14.02C83.44 13.46 82.76 13.02 81.97 12.72C81.18 12.41 80.31 12.26 79.38 12.26C78.45 12.26 77.59 12.41 76.8 12.71V12.69V12.69ZM69.73 14.55C69.59 14.2 69.39 13.87 69.11 13.57C68.7 13.13 68.18 12.79 67.53 12.55C66.89 12.32 66.15 12.2 65.32 12.2C64.62 12.2 63.98 12.28 63.38 12.45C62.79 12.62 62.28 12.85 61.86 13.16C61.44 13.47 61.12 13.84 60.9 14.27C60.68 14.7 60.57 15.18 60.57 15.69C60.57 16.28 60.72 16.8 61.01 17.25C61.3 17.7 61.73 18.05 62.28 18.29C62.62 18.43 63.04 18.56 63.54 18.66C64.04 18.76 64.71 18.88 65.54 19.01C66.48 19.17 67.09 19.29 67.39 19.37C67.69 19.45 67.93 19.54 68.11 19.62C68.82 19.94 69.17 20.47 69.17 21.2C69.17 21.93 68.83 22.57 68.15 23.03C67.47 23.49 66.58 23.72 65.46 23.72C63.77 23.72 62.59 23.22 61.91 22.21C61.62 21.8 61.47 21.26 61.46 20.59H60.2C60.25 21.25 60.32 21.73 60.43 22.02C60.53 22.31 60.65 22.57 60.8 22.79C61.21 23.43 61.82 23.92 62.63 24.27C63.44 24.62 64.38 24.79 65.45 24.79C67 24.79 68.21 24.47 69.1 23.82C69.99 23.17 70.42 22.28 70.42 21.16C70.42 20.52 70.26 19.97 69.93 19.49C69.61 19.02 69.15 18.67 68.56 18.46C68.13 18.29 67.66 18.16 67.16 18.07C66.66 17.98 66.28 17.91 66.01 17.86C65.74 17.81 65.55 17.78 65.44 17.75C64.4 17.57 63.8 17.46 63.65 17.43C63.5 17.39 63.34 17.35 63.17 17.3C62.71 17.18 62.37 16.98 62.14 16.69C61.91 16.4 61.79 16.05 61.79 15.63C61.79 14.92 62.11 14.35 62.74 13.92C63.38 13.49 64.22 13.27 65.26 13.27C66.3 13.27 67.19 13.5 67.8 13.94C68.41 14.39 68.75 15.04 68.81 15.88H70C69.95 15.35 69.86 14.91 69.72 14.56L69.73 14.55ZM57.23 12.48H55.99V23.03L47.49 12.48H45.94V24.49H47.18V13.92L55.66 24.49H57.23V12.48V12.48ZM33.11 24.49V18.6H41.1V24.49H42.34V12.48H41.1V17.52H33.11V12.48H31.87V24.49H33.11ZM24.47 13.65C25.12 13.89 25.67 14.24 26.13 14.69C26.59 15.15 26.93 15.7 27.17 16.35C27.41 17 27.53 17.71 27.53 18.49C27.53 19.27 27.4 19.95 27.15 20.59C26.9 21.23 26.54 21.78 26.08 22.25C25.62 22.72 25.07 23.07 24.42 23.31C23.78 23.56 23.08 23.68 22.32 23.68C21.56 23.68 20.86 23.55 20.22 23.3C19.58 23.05 19.03 22.69 18.56 22.23C18.09 21.77 17.74 21.21 17.5 20.56C17.25 19.91 17.13 19.2 17.13 18.45C17.13 17.7 17.25 17 17.5 16.36C17.75 15.72 18.1 15.18 18.56 14.72C19.02 14.26 19.57 13.91 20.22 13.67C20.86 13.42 21.57 13.3 22.33 13.3C23.09 13.3 23.81 13.42 24.45 13.66H24.47V13.65ZM19.78 12.67C18.98 12.97 18.3 13.4 17.72 13.96C17.14 14.52 16.7 15.18 16.38 15.95C16.06 16.72 15.9 17.55 15.9 18.43C15.9 19.31 16.06 20.19 16.37 20.97C16.68 21.75 17.12 22.42 17.69 22.98C18.26 23.54 18.94 23.97 19.74 24.28C20.54 24.59 21.4 24.74 22.32 24.74C23.24 24.74 24.09 24.6 24.88 24.31C25.68 24.02 26.35 23.61 26.91 23.09C27.47 22.56 27.92 21.89 28.26 21.07C28.6 20.25 28.76 19.43 28.76 18.59C28.76 17.67 28.61 16.81 28.3 16.02C27.99 15.23 27.56 14.56 26.99 14C26.42 13.44 25.74 13 24.95 12.7C24.16 12.39 23.29 12.24 22.36 12.24C21.43 12.24 20.57 12.39 19.78 12.69V12.67V12.67ZM11.69 12.47V20.88C11.69 21.76 11.46 22.44 10.99 22.93C10.52 23.42 9.87002 23.67 9.05002 23.67C8.23002 23.67 7.57002 23.42 7.09002 22.92C6.61002 22.42 6.37002 21.74 6.37002 20.88V20.36H5.18002V20.88C5.18002 22.07 5.52002 23.01 6.21002 23.7C6.90002 24.39 7.84002 24.74 9.03002 24.74C9.75002 24.74 10.4 24.6 10.99 24.32C11.58 24.04 12.03 23.64 12.36 23.14C12.74 22.55 12.94 21.72 12.94 20.64V12.47H11.69V12.47Z" fill="#231F20"/>
<path d="M81.84 37.61H86.38C87.2 37.61 87.78 37.68 88.13 37.81C88.56 37.98 88.9 38.25 89.16 38.64C89.41 39.02 89.54 39.46 89.54 39.95C89.54 40.38 89.44 40.77 89.24 41.11C89.04 41.45 88.76 41.71 88.4 41.89C88.03 42.07 87.44 42.16 86.64 42.16H81.85V37.61H81.84ZM91.09 48.34C90.93 48.16 90.84 47.97 90.79 47.76C90.75 47.56 90.69 47.06 90.62 46.28L90.55 45.2C90.5 44.36 90.33 43.75 90.03 43.37C89.73 42.99 89.23 42.76 88.54 42.68C90.03 42.25 90.77 41.29 90.77 39.8C90.77 39.2 90.64 38.66 90.37 38.17C90.11 37.68 89.73 37.3 89.25 37.01C88.67 36.66 87.79 36.49 86.59 36.49H80.61V48.5H81.83V43.24H86.74C87.62 43.24 88.26 43.42 88.67 43.78C88.91 43.98 89.07 44.22 89.14 44.49C89.21 44.76 89.25 45.05 89.27 45.36L89.31 45.99C89.33 46.57 89.37 47.01 89.42 47.31C89.47 47.62 89.56 48.01 89.69 48.49H91.09V48.33V48.34ZM77.72 47.4H69.51V42.97H77.11V41.87H69.51V37.62H77.57V36.5H68.28V48.51H77.71V47.39H77.72V47.4ZM61.18 37.64H65.77V36.52H55.28V37.64H59.92V48.53H61.18V37.64V37.64ZM52.76 36.52H51.52V47.07L43.02 36.52H41.47V48.53H42.71V37.96L51.19 48.53H52.76V36.52ZM36.87 48.53V36.52H35.63V48.53H36.87ZM32.14 36.52H30.83L27.43 47.32L23.96 36.52H22.43L19.03 47.32L15.57 36.52H14.26L18.24 48.53H19.79L23.19 37.86L26.63 48.53H28.23L32.15 36.52H32.14V36.52Z" fill="#231F20"/>
<path d="M96.22 67.39L101.39 60.5H99.91L95.61 66.35L91.27 60.5H89.81L95.01 67.39V72.5H96.22V67.39ZM79.28 61.61H83.82C84.64 61.61 85.22 61.68 85.57 61.81C86 61.98 86.34 62.25 86.6 62.64C86.85 63.02 86.98 63.46 86.98 63.95C86.98 64.38 86.88 64.77 86.68 65.11C86.48 65.45 86.2 65.71 85.84 65.89C85.47 66.07 84.88 66.16 84.08 66.16H79.29V61.61H79.28ZM88.53 72.34C88.37 72.16 88.28 71.97 88.23 71.76C88.19 71.56 88.13 71.06 88.06 70.28L87.99 69.2C87.94 68.36 87.77 67.75 87.47 67.37C87.17 66.99 86.67 66.76 85.98 66.68C87.47 66.25 88.21 65.29 88.21 63.8C88.21 63.2 88.08 62.66 87.81 62.17C87.55 61.68 87.17 61.3 86.69 61.01C86.11 60.66 85.23 60.49 84.03 60.49H78.05V72.5H79.27V67.24H84.18C85.06 67.24 85.7 67.42 86.11 67.78C86.35 67.98 86.51 68.22 86.58 68.49C86.65 68.76 86.69 69.05 86.71 69.36L86.75 69.99C86.77 70.57 86.81 71.01 86.86 71.31C86.91 71.62 87 72.01 87.13 72.49H88.53V72.33V72.34ZM75.16 71.4H66.95V66.97H74.55V65.87H66.95V61.62H75.01V60.5H65.72V72.51H75.15V71.39H75.16V71.4ZM58.62 61.64H63.21V60.52H52.72V61.64H57.36V72.53H58.62V61.64V61.64ZM46.18 61.64H50.77V60.52H40.28V61.64H44.92V72.53H46.18V61.64ZM31.53 67.74L34.32 61.46L37.11 67.74H31.53ZM39.29 72.53H40.69L35.11 60.52H33.58L28.04 72.53H29.37L31.06 68.82H37.61L39.28 72.53H39.29ZM26.13 72.53V71.41H18.43V60.52H17.19V72.53H26.13ZM13.48 62.58C13.34 62.23 13.14 61.9 12.86 61.6C12.45 61.16 11.93 60.82 11.28 60.58C10.64 60.35 9.90001 60.23 9.07001 60.23C8.37001 60.23 7.73001 60.31 7.13001 60.48C6.54001 60.65 6.03001 60.89 5.61001 61.19C5.19001 61.49 4.87001 61.86 4.65001 62.3C4.43001 62.73 4.32001 63.21 4.32001 63.72C4.32001 64.31 4.47001 64.83 4.76001 65.28C5.05001 65.73 5.48001 66.07 6.03001 66.32C6.37001 66.46 6.79001 66.59 7.29001 66.69C7.79001 66.79 8.46001 66.91 9.29001 67.04C10.23 67.2 10.84 67.32 11.14 67.4C11.44 67.48 11.68 67.57 11.86 67.65C12.57 67.97 12.92 68.5 12.92 69.23C12.92 69.96 12.58 70.6 11.9 71.06C11.22 71.52 10.33 71.75 9.21001 71.75C7.52001 71.75 6.34001 71.25 5.66001 70.24C5.37001 69.83 5.22001 69.29 5.21001 68.62H3.95001C4.00001 69.28 4.07001 69.76 4.18001 70.05C4.28001 70.34 4.40001 70.6 4.55001 70.81C4.96001 71.45 5.57001 71.94 6.38001 72.29C7.19001 72.64 8.13001 72.81 9.20001 72.81C10.75 72.81 11.96 72.49 12.85 71.84C13.73 71.19 14.17 70.3 14.17 69.18C14.17 68.54 14.01 67.99 13.68 67.51C13.36 67.04 12.9 66.69 12.31 66.47C11.88 66.3 11.41 66.17 10.91 66.08C10.41 65.99 10.03 65.92 9.76001 65.87C9.49001 65.82 9.30001 65.79 9.19001 65.76C8.15001 65.58 7.55001 65.47 7.40001 65.44C7.25001 65.41 7.09001 65.36 6.92001 65.31C6.46001 65.19 6.12001 64.99 5.89001 64.7C5.66001 64.41 5.54001 64.06 5.54001 63.64C5.54001 62.93 5.86001 62.36 6.49001 61.93C7.13001 61.5 7.97001 61.28 9.01001 61.28C10.05 61.28 10.94 61.51 11.55 61.96C12.16 62.41 12.5 63.05 12.56 63.89H13.75C13.7 63.36 13.61 62.92 13.47 62.57L13.48 62.58Z" fill="#231F20"/>
<path d="M103.73 0.880001V2.12H52.34H0.950012V0.880001H52.34H103.73Z" fill="#231F20"/>
<path d="M103.73 82.88V84.12H52.34H0.950012V82.88H52.34H103.73Z" fill="#231F20"/>
</g>
<defs>
<clipPath id="clip0_702_580">
<rect width="104" height="85" fill="white"/>
</clipPath>
</defs>
</svg>