<?xml version="1.0" encoding="UTF-8"?>
<svg id="svg836" width="284.68845" height="34.000137" version="1.1" viewBox="0 0 284.68845 34.000137" xmlns="http://www.w3.org/2000/svg" xmlns:cc="http://creativecommons.org/ns#" xmlns:dc="http://purl.org/dc/elements/1.1/" xmlns:rdf="http://www.w3.org/1999/02/22-rdf-syntax-ns#">
 <!-- Generator: Sketch 61 (89581) - https://sketch.com -->
 <title id="title824">qe-logo</title>
 <desc id="desc826">Created with Sketch.</desc>
 <g id="Symbols" transform="translate(0,1.368e-4)" fill="none" fill-rule="evenodd">
  <g id="Nav" transform="translate(-136,-21)">
   <g id="qe-logo" transform="translate(136,21)">
    <path id="Combined-Shape" d="m3.246264 3.2581656c0.616284 0 1.18332 0.138168 1.701792 0.414504 0.519156 0.276336 0.993168 0.69426 1.42272 1.254456l0.0855-1.377576h4.826304v18.431748h-4.911804v-3.601944c-0.478116 0.699048-0.917928 1.13886-1.319436 1.322172-0.400824 0.181944-0.897408 0.2736-1.489068 0.2736-0.859104 0-1.570464-0.203148-2.13408-0.608076-0.562932-0.404928-0.941868-0.93024-1.136124-1.573884-0.19494-0.645012-0.292068-1.63134-0.292068-2.960352v-7.1129164c0-1.093716 0.073188-1.910412 0.21888-2.449404s0.496584-1.0089 1.051308-1.410408c0.555408-0.401508 1.2141-0.60192 1.976076-0.60192zm135.85089 4.104e-4c1.37757 0 2.51438 0.260604 3.40974 0.783864 0.89604 0.522576 1.52395 1.215468 1.8851 2.078676 0.36047 0.863208 0.54036 2.077308 0.54036 3.641616v2.139552h-6.35778v3.489084c0 0.729828 0.052 1.199736 0.158 1.410408 0.10534 0.211356 0.3078 0.316692 0.6074 0.316692 0.37278 0 0.62244-0.14022 0.74829-0.419292 0.12517-0.28044 0.1881-0.821484 0.1881-1.623132v-2.127924h4.65599v1.191528c0 0.996588-0.0629 1.762668-0.1881 2.297556-0.12586 0.534888-0.41929 1.106712-0.88099 1.714788-0.46239 0.607392-1.04789 1.062936-1.7572 1.367316-0.70931 0.303696-1.59851 0.456228-2.66828 0.456228-1.03831 0-1.95351-0.15048-2.74831-0.450756-0.79413-0.298908-1.41178-0.710676-1.85364-1.233252-0.44187-0.52326-0.74762-1.098504-0.91793-1.7271-0.17032-0.627912-0.25513-1.541736-0.25513-2.741472v-4.704552c0-1.410408 0.19015-2.522592 0.57114-3.337236 0.38098-0.814644 1.00479-1.438452 1.8721-1.872792 0.86732-0.432972 1.86459-0.6498 2.99114-0.6498zm-121.21281 0.2913156v10.9782c0 1.257192 0.0383 2.002752 0.115596 2.237364 0.07661 0.235296 0.285228 0.352944 0.62586 0.352944 0.364572 0 0.5814-0.121752 0.650484-0.364572 0.06448-0.227271 0.09857-0.923467 0.102828-2.089702l4.56e-4 -11.114234h4.911804v16.133508h-4.99662l0.08482-1.34064c-0.340632 0.544464-0.759924 0.952812-1.25856 1.22436s-1.071828 0.408348-1.72026 0.408348c-0.737352 0-1.349532-0.12996-1.835856-0.38988-0.486324-0.259236-0.84474-0.603288-1.075248-1.03284-0.231192-0.429552-0.375516-0.877572-0.432288-1.343376-0.05272-0.433168-0.08066-1.262075-0.08439-2.488364l-4.3e-4 -11.171116zm50.71005-0.2913156c1.377576 0 2.514384 0.260604 3.410424 0.783864 0.895356 0.522576 1.523268 1.215468 1.88442 2.078676 0.360468 0.863208 0.541044 2.077308 0.541044 3.641616v2.139552h-6.358464v3.489084c0 0.729828 0.05198 1.199736 0.158004 1.410408 0.105336 0.211356 0.3078 0.316692 0.607392 0.316692 0.37278 0 0.62244-0.14022 0.748296-0.419292 0.125172-0.28044 0.1881-0.821484 0.1881-1.623132v-2.127924h4.656672v1.191528c0 0.996588-0.06293 1.762668-0.188784 2.297556-0.125856 0.534888-0.419292 1.106712-0.880992 1.714788-0.462384 0.607392-1.047888 1.062936-1.757196 1.367316-0.709308 0.303696-1.598508 0.456228-2.668284 0.456228-1.038312 0-1.953504-0.15048-2.748312-0.450756-0.794124-0.298908-1.411776-0.710676-1.85364-1.233252-0.441864-0.52326-0.747612-1.098504-0.917928-1.7271-0.170316-0.627912-0.255132-1.541736-0.255132-2.741472v-4.704552c0-1.410408 0.190152-2.522592 0.57114-3.337236s1.004796-1.438452 1.872108-1.872792c0.867312-0.432972 1.864584-0.6498 2.991132-0.6498zm57.044297 0.2913156v10.9782c0 1.257192 0.0383 2.002752 0.1156 2.237364 0.0766 0.235296 0.28523 0.352944 0.62586 0.352944 0.36457 0 0.5814-0.121752 0.65048-0.364572 0.0645-0.227271 0.0986-0.923467 0.10283-2.089702l4.6e-4 -11.114234h4.9118v16.133508h-4.99662l0.0848-1.34064c-0.34064 0.544464-0.75993 0.952812-1.25856 1.22436-0.49864 0.271548-1.07183 0.408348-1.72026 0.408348-0.73736 0-1.34953-0.12996-1.83586-0.38988-0.48632-0.259236-0.84474-0.603288-1.07525-1.03284-0.23119-0.429552-0.37551-0.877572-0.43228-1.343376-0.0568-0.466488-0.0848-1.39194-0.0848-2.778408v-10.881072zm-25.08187-0.2913156c1.66144 0 2.91384 0.293436 3.75653 0.880992 0.84337 0.58824 1.35022 1.309176 1.52053 2.164176 0.16964 0.855 0.25514 2.615616 0.25514 5.282532v8.097192h-4.77843v-1.437768c-0.29959 0.576612-0.68673 1.0089-1.16075 1.297548-0.474008 0.287964-1.039676 0.432288-1.695632 0.432288-0.859788 0-1.647756-0.241452-2.365272-0.723672-0.716832-0.48222-1.075932-1.538316-1.075932-3.167604v-1.324908c0-1.207944 0.190836-2.030112 0.571824-2.467872 0.380304-0.43776 1.324908-0.948708 2.832444-1.53216 1.612868-0.632016 2.476078-1.057464 2.589628-1.276344 0.11354-0.21888 0.17031-0.664164 0.17031-1.33722 0-0.842688-0.0629-1.39194-0.18878-1.647756-0.12517-0.255132-0.33448-0.38304-0.62586-0.38304-0.33243 0-0.538994 0.108072-0.62039 0.322848-0.07399 0.196878-0.114062 0.681131-0.120228 1.4532858l-8.4e-4 1.9078902h-4.608108v-1.082088c0-1.2483 0.14364-2.210688 0.431604-2.887164s0.86526-1.274292 1.732572-1.793448c0.867312-0.518472 1.99386-0.777708 3.37964-0.777708zm51.03878-3.2587128v19.683468h-5.05818v-19.683468zm-110.72065 3.2586444c0.842688 0 1.531476 0.19836 2.066364 0.59508 0.534888 0.397404 0.879624 0.898092 1.033524 1.502064 0.1539 0.603288 0.231192 1.61082 0.231192 3.021228v11.30652h-4.911804v-11.17314c0-1.110132-0.03694-1.787292-0.10944-2.030112-0.07319-0.243504-0.275652-0.365256-0.608076-0.365256-0.34884 0-0.567036 0.14022-0.65664 0.419976-0.08257 0.2591383-0.127392 0.9228626-0.133374 1.9895299l-6.9e-4 11.159002h-4.91112v-16.133508h4.99662l-0.0855 1.486332c0.357048-0.592344 0.792756-1.036944 1.307808-1.333116 0.514368-0.296856 1.10808-0.4446 1.781136-0.4446zm13.021034 0c0.842688 0 1.531476 0.19836 2.066364 0.59508 0.534888 0.397404 0.879624 0.898092 1.033524 1.502064 0.1539 0.603288 0.231192 1.61082 0.231192 3.021228v11.30652h-4.911804v-11.17314c0-1.110132-0.03694-1.787292-0.10944-2.030112-0.07319-0.243504-0.275652-0.365256-0.608076-0.365256-0.34884 0-0.567036 0.14022-0.65664 0.419976-0.08257 0.2591383-0.127391 0.9228626-0.133373 1.9895299l-6.91e-4 11.159002h-4.91112v-16.133508h4.99662l-0.0855 1.486332c0.357048-0.592344 0.792756-1.036944 1.307808-1.333116 0.514368-0.296856 1.10808-0.4446 1.781136-0.4446zm-22.784245 0.2913156v16.133508h-5.057496v-16.133508zm59.07496-0.2913156c0.83448 0 1.526004 0.202464 2.07252 0.607392 0.5472 0.405612 0.897408 0.902196 1.051992 1.489752 0.1539 0.587556 0.230508 1.541736 0.230508 2.863224v11.464524h-4.765428v-10.5165c0-1.377576-0.04651-2.231208-0.139536-2.559528-0.09371-0.327636-0.310536-0.49248-0.651168-0.49248-0.348156 0-0.573192 0.162792-0.674424 0.486324-0.09448 0.30324-0.144875 1.068256-0.151173 2.2956041l-6.75e-4 10.78658h-4.766112v-10.249056c0-1.580724-0.0383-2.528748-0.115596-2.844756-0.07661-0.316692-0.289332-0.474696-0.638172-0.474696-0.21888 0-0.404928 0.083448-0.558828 0.24966s-0.2394 0.368676-0.255816 0.608076c-0.01573 0.2394-0.02394 0.747612-0.02394 1.52532v11.185452h-4.766112v-16.133508h4.850928l-0.08482 1.534896c0.380988-0.60876 0.83448-1.064988 1.361844-1.370052 0.52668-0.30438 1.126548-0.456228 1.79892-0.456228 1.31328 0 2.346804 0.60876 3.100572 1.82628 0.413136-0.60876 0.87894-1.064988 1.398096-1.370052 0.518472-0.30438 1.093716-0.456228 1.726416-0.456228zm25.59227 0c0.84269 0 1.53148 0.19836 2.06636 0.59508 0.53489 0.397404 0.87963 0.898092 1.03353 1.502064 0.1539 0.603288 0.23119 1.61082 0.23119 3.021228v11.30652h-4.9118v-11.17314c0-1.110132-0.0369-1.787292-0.10944-2.030112-0.0732-0.243504-0.27566-0.365256-0.60808-0.365256-0.34884 0-0.56704 0.14022-0.65664 0.419976-0.0826 0.2591383-0.12739 0.9228626-0.13337 1.9895299l-6.9e-4 11.159002h-4.91112v-16.133508h4.99662l-0.0855 1.486332c0.35704-0.592344 0.79275-1.036944 1.3078-1.333116 0.51437-0.296856 1.10808-0.4446 1.78114-0.4446zm-110.16196 2.856726c-0.275652 0-0.4617 0.10944-0.559512 0.32832-0.097128 0.21888-0.145692 0.717516-0.145692 1.495224v7.1854204c0 0.867312 0.048564 1.416564 0.145692 1.647756 0.097812 0.230508 0.296172 0.346104 0.595764 0.346104 0.28386 0 0.474696-0.119016 0.571824-0.358416s0.145692-0.759924 0.145692-1.562256v-7.2586084c0-0.712728-0.05472-1.195632-0.16416-1.44666s-0.305748-0.376884-0.589608-0.376884zm95.560202 5.8964904c-0.7866 0.575928-1.242142 1.057464-1.367998 1.44666s-0.1881 0.948024-0.1881 1.677852c0 0.835164 0.05472 1.374156 0.16416 1.61766 0.10944 0.24282 0.325588 0.364572 0.650488 0.364572 0.3078 0 0.50821-0.09576 0.60123-0.285912 0.0937-0.190152 0.14022-0.69084 0.14022-1.50138zm-32.351625-5.896764c-0.340632 0-0.551304 0.103968-0.632016 0.310536-0.0814 0.206568-0.121752 0.764028-0.121752 1.671696v1.179216h1.434348v-1.179216c0-0.835164-0.04446-1.374156-0.13338-1.616976-0.0896-0.243504-0.272232-0.365256-0.5472-0.365256zm70.502755 0c-0.34063 0-0.55131 0.103968-0.63202 0.310536-0.0814 0.206568-0.12175 0.764028-0.12175 1.671696v1.179216h1.43435v-1.179216c0-0.835164-0.0445-1.374156-0.13338-1.616976-0.0896-0.243504-0.27223-0.365256-0.5472-0.365256zm-108.2166-6.1144128v2.565h-5.057496v-2.565z" fill="#c1cc23"/>
    <path id="path829" d="m244.91666 3.5498916 1.61424 10.893384 0.78729-10.893384h4.44326l-1.40357 11.671776c-0.22161 1.848168-0.40766 3.108096-0.55746 3.781152-0.15048 0.672372-0.39945 1.22778-0.74829 1.664856-0.34816 0.438444-0.83243 0.760608-1.45213 0.966492-0.62039 0.207252-1.61082 0.310536-2.97267 0.310536h-2.97813v-2.577312c0.76334 0 1.25445-0.03899 1.47333-0.115596 0.21957-0.07661 0.32969-0.248976 0.32969-0.517104 0-0.129276-0.10192-0.692892-0.30506-1.690164l-2.68881-13.494636zm-58.52516-0.2913156c1.66076 0 2.91384 0.293436 3.75653 0.880992 0.84269 0.58824 1.34953 1.309176 1.51985 2.164176 0.16221 0.8142857 0.24686 2.4499918 0.25456 4.907709l5.7e-4 8.472015h-4.77842v-1.437768c-0.29959 0.576612-0.68674 1.0089-1.16075 1.297548-0.47401 0.287964-1.039 0.432288-1.69564 0.432288-0.85978 0-1.64775-0.241452-2.36458-0.723672-0.71752-0.48222-1.07662-1.538316-1.07662-3.167604v-1.324908c0-1.207944 0.19084-2.030112 0.57114-2.467872 0.38167-0.43776 1.32559-0.948708 2.83313-1.53216 1.61287-0.632016 2.47608-1.057464 2.58962-1.276344 0.11355-0.21888 0.17032-0.664164 0.17032-1.33722 0-0.842688-0.0629-1.39194-0.1881-1.647756-0.12654-0.255132-0.33516-0.38304-0.62655-0.38304-0.33242 0-0.53899 0.108072-0.62038 0.322848-0.0807 0.214776-0.12107 0.771552-0.12107 1.671012v1.690164h-4.60811v-1.082088c0-1.2483 0.14364-2.210688 0.4316-2.887164 0.28797-0.676476 0.86526-1.274292 1.73258-1.793448 0.86731-0.518472 1.99386-0.777708 3.38032-0.777708zm30.57761 0c1.66075 0 2.91384 0.293436 3.75653 0.880992 0.84268 0.58824 1.34953 1.309176 1.51984 2.164176 0.17032 0.855 0.25514 2.615616 0.25514 5.282532v8.097192h-4.77843v-1.437768c-0.29959 0.576612-0.68673 1.0089-1.16075 1.297548-0.47401 0.287964-1.03899 0.432288-1.69563 0.432288-0.85979 0-1.64776-0.241452-2.36459-0.723672-0.71752-0.48222-1.07661-1.538316-1.07661-3.167604v-1.324908c0-1.207944 0.19083-2.030112 0.57113-2.467872 0.38168-0.43776 1.3256-0.948708 2.83313-1.53216 1.61287-0.632016 2.47608-1.057464 2.58963-1.276344 0.11354-0.21888 0.17031-0.664164 0.17031-1.33722 0-0.842688-0.0629-1.39194-0.1881-1.647756-0.12654-0.255132-0.33516-0.38304-0.62654-0.38304-0.33243 0-0.53899 0.108072-0.62039 0.322848-0.0807 0.214776-0.12107 0.771552-0.12107 1.671012v1.690164h-4.6081v-1.082088c0-1.2483 0.14363-2.210688 0.4316-2.887164 0.28796-0.676476 0.86526-1.274292 1.73257-1.793448 0.86731-0.518472 1.99386-0.777708 3.38033-0.777708zm40.9597 0c1.37826 0 2.51438 0.260604 3.40974 0.783864 0.89604 0.522576 1.52395 1.215468 1.8851 2.078676 0.36047 0.863208 0.54036 2.077308 0.54036 3.641616v2.139552h-6.35846v3.489084c0 0.729828 0.0527 1.199736 0.15869 1.410408 0.10465 0.211356 0.3078 0.316692 0.60739 0.316692 0.37278 0 0.62244-0.14022 0.74761-0.419292 0.12586-0.28044 0.18878-0.821484 0.18878-1.623132v-2.127924h4.65599v1.191528c0 0.996588-0.0629 1.762668-0.1881 2.297556-0.12585 0.534888-0.41929 1.106712-0.88099 1.714788-0.46238 0.607392-1.04789 1.062936-1.7572 1.367316-0.7093 0.303696-1.5985 0.456228-2.66828 0.456228-1.03831 0-1.9535-0.15048-2.74831-0.450756-0.79413-0.298908-1.41178-0.710676-1.85364-1.233252-0.44187-0.52326-0.74761-1.098504-0.91793-1.7271-0.17032-0.627912-0.25513-1.541736-0.25513-2.741472v-4.704552c0-1.410408 0.19015-2.522592 0.57182-3.337236 0.38031-0.814644 1.00411-1.438452 1.87143-1.872792 0.86799-0.432972 1.86458-0.6498 2.99113-0.6498zm21.06945-3.42e-4c1.06978 0 1.9795 0.135432 2.72985 0.40698 0.74898 0.271548 1.32491 0.630648 1.72573 1.076616 0.40151 0.445284 0.64433 0.85842 0.72914 1.240092 0.0855 0.380988 0.12791 0.976068 0.12791 1.786608v0.936396h-4.35229v-0.87552c0-0.74556-0.0424-1.21752-0.12791-1.416564-0.0848-0.19836-0.29754-0.29754-0.63749-0.29754-0.27633 0-0.4829 0.090972-0.62107 0.2736-0.13748 0.181944-0.20588 0.455544-0.20588 0.820116 0 0.495216 0.0342 0.857736 0.10328 1.088244 0.0691 0.231192 0.27497 0.484956 0.61971 0.759924 0.34473 0.275652 1.0513 0.67716 2.12176 1.20384 1.42683 0.696996 2.36254 1.353636 2.80851 1.969236 0.44597 0.616284 0.66895 1.512324 0.66895 2.687436 0 1.312596-0.17032 2.303712-0.51095 2.97198-0.33995 0.668952-0.90972 1.184004-1.70795 1.544472-0.79822 0.360468-1.7613 0.541044-2.88784 0.541044-1.2483 0-2.31603-0.194256-3.20386-0.583452s-1.49728-0.915876-1.82902-1.580724c-0.3331-0.664848-0.49863-1.66896-0.49863-3.015072v-0.777708h4.35229v1.020528c0 0.867996 0.0547 1.430928 0.16416 1.690164 0.10944 0.25992 0.32627 0.389196 0.65049 0.389196 0.34883 0 0.59165-0.08755 0.72914-0.261972 0.13748-0.173736 0.20725-0.541044 0.20725-1.099872 0-0.7695-0.0896-1.25172-0.26813-1.44666-0.18605-0.194256-1.13886-0.770184-2.85638-1.726416-1.44324-0.81054-2.32218-1.54584-2.63887-2.206584-0.31601-0.660744-0.47402-1.444608-0.47402-2.35296 0-1.287972 0.17032-2.238732 0.51095-2.850912 0.34063-0.611496 0.91793-1.083456 1.73258-1.41588 0.81396-0.332424 1.76061-0.498636 2.83859-0.498636zm-116.07131-1.8602064v2.54106h1.32491v2.553372h-1.32491v8.6313964c0 1.062252 0.0547 1.653912 0.16416 1.775664 0.10944 0.121068 0.56499 0.181944 1.36732 0.181944v2.601936h-1.98087c-1.11902 0-1.91725-0.04651-2.39536-0.139536-0.47812-0.09371-0.90015-0.3078-1.26472-0.645012-0.36457-0.335844-0.59166-0.720936-0.68058-1.154592-0.084-0.406553-0.12773-1.327709-0.13287-2.763467l-5.1e-4 -8.4883334h-1.05815v-2.553372h1.05815v-2.54106zm10.22457 1.86048v5.6772c-0.89946 0-1.5602 0.121752-1.98155 0.365256-0.42202 0.24282-0.68126 0.5814-0.77839 1.0150564-0.0971 0.433656-0.14569 1.432296-0.14569 2.996604v6.370776h-4.91249v-16.133508h4.91249l-0.19426 2.121768c0.71273-1.519848 1.74626-2.323548 3.09989-2.413152zm6.15156 0.2913156v16.133508h-5.05818v-16.133508zm19.36746-3.54996v19.683468h-5.05818v-19.683468zm11.21007 0v19.683468h-5.05818v-19.683468zm17.59488 3.5500284c0.0328 0.421344 0.39056 3.501396 1.07388 9.2401564 0.0533-0.590292 0.42134-3.6703444 1.1026-9.2401564h4.06775l0.99385 9.2401564c0.15664-2.69838 0.53216-5.7777484 1.12587-9.2401564h4.22917l-1.96034 16.133508h-5.3311c-0.2907-1.971288-0.62928-4.568436-1.01779-7.793496-0.13407 1.4193-0.31738 2.849544-0.55267 4.2921l-0.539 3.501396h-5.3434l-2.0821-16.133508zm45.71165-0.291384v5.6772c-0.89946 0-1.56021 0.121752-1.98155 0.365256-0.42203 0.24282-0.68126 0.5814-0.77839 1.0150564-0.0911 0.406552-0.13943 1.309673-0.14512 2.709925l-5.7e-4 6.657455h-4.91249v-16.133508h4.91249l-0.19426 2.121768c0.71273-1.519848 1.74625-2.323548 3.09989-2.413152zm-86.17593 8.7532164c-0.78592 0.575928-1.24215 1.057464-1.368 1.44666-0.12586 0.389196-0.1881 0.948024-0.1881 1.677852 0 0.835164 0.0547 1.374156 0.16416 1.61766 0.10944 0.24282 0.32558 0.364572 0.65048 0.364572 0.3078 0 0.50821-0.09576 0.60124-0.285912 0.0937-0.190152 0.14022-0.69084 0.14022-1.50138zm30.5776 0c-0.78591 0.575928-1.24214 1.057464-1.368 1.44666-0.12585 0.389196-0.1881 0.948024-0.1881 1.677852 0 0.835164 0.0547 1.374156 0.16416 1.61766 0.10944 0.24282 0.32559 0.364572 0.65049 0.364572 0.3078 0 0.50821-0.09576 0.60123-0.285912 0.0937-0.190152 0.14022-0.69084 0.14022-1.50138zm40.57119-5.896764c-0.34063 0-0.55199 0.103968-0.6327 0.310536-0.0807 0.206568-0.12175 0.764028-0.12175 1.671696v1.179216h1.43503v-1.179216c0-0.835164-0.0445-1.374156-0.13338-1.616976-0.0896-0.243504-0.27223-0.365256-0.5472-0.365256zm-78.85692-6.1144128v2.565h-5.05818v-2.565z" fill="#000000"/>
    <path id="path831" d="m190.57389 30.843066v0.873544c0 0.458159-0.0599 0.834063-0.17699 1.126889-0.11714 0.292827-0.32064 0.542881-0.60794 0.746873-0.289 0.205636-0.61649 0.341357-0.97988 0.409628v-0.699165c0.25993-0.136542 0.407-0.318325 0.44206-0.547816h-0.44206v-1.909953zm-188.83558-6.228242c0.3300475 0 0.6344437 0.06827 0.9123334 0.204814 0.2778898 0.136543 0.5318383 0.343825 0.7618455 0.621845l0.046172-0.682714h2.5856573v9.13356h-2.6318293v-1.784927c-0.2556586 0.346292-0.4916511 0.564267-0.7062675 0.654747-0.2154715 0.09048-0.4813906 0.135721-0.7977574 0.135721-0.4608695 0-0.8413647-0.100351-1.1431957-0.301053-0.30183104-0.200701-0.50533185-0.461448-0.60964739-0.779774-0.1034605-0.31997-0.15561827-0.808563-0.15561827-1.467423v-3.524613c0-0.542058 0.03933209-0.946751 0.11714122-1.213257 0.07780914-0.26815 0.26591913-0.50093 0.56347494-0.699164 0.29670076-0.199057 0.64983454-0.297762 1.0576912-0.297762zm96.172603 0c0.330048 0 0.634444 0.06827 0.912334 0.204814 0.277889 0.136543 0.531838 0.343825 0.761845 0.621845l0.04617-0.682714h2.585661v9.13356h-2.631833v-1.784927c-0.255659 0.346292-0.491651 0.564267-0.706268 0.654747-0.215471 0.09048-0.48139 0.135721-0.797757 0.135721-0.460869 0-0.841365-0.100351-1.143196-0.301053-0.301831-0.200701-0.505332-0.461448-0.609647-0.779774-0.10346-0.31997-0.155618-0.808563-0.155618-1.467423v-3.524613c0-0.542058 0.03933-0.946751 0.117141-1.213257 0.07781-0.26815 0.265919-0.50093 0.563475-0.699164 0.296701-0.199057 0.649834-0.297762 1.057691-0.297762zm107.36275-3.29e-4c0.407 0 0.76099 0.101173 1.05855 0.30352 0.29755 0.203169 0.48224 0.436772 0.55578 0.702454 0.0735 0.26486 0.11201 0.714794 0.11201 1.348977v3.367506c0 0.727954-0.047 1.244514-0.14023 1.552146-0.0932 0.30681-0.28558 0.551929-0.57459 0.734534-0.28729 0.182606-0.63615 0.273909-1.04401 0.273909-0.32492 0-0.6276-0.07074-0.90635-0.210572-0.27703-0.140656-0.53098-0.350405-0.76184-0.627604v1.832635h-2.63012v-9.132737h2.67543l-0.0453 0.705745c0.23599-0.285424 0.4925-0.498463 0.77552-0.639941 0.28217-0.140656 0.59084-0.210572 0.92516-0.210572zm-67.03342-0.174791c0.78151 0 1.39714 0.203169 1.84604 0.608684 0.44976 0.405516 0.67463 0.921252 0.67463 1.548033 0 0.65886-0.27361 1.243691-0.8217 1.75367l0.92858 1.551323 1.43648-0.852981v1.644271l-0.73277 0.434305 0.91831 1.626175h-2.43602l-0.31637-0.541236c-0.81657 0.496818-1.58867 0.74605-2.31802 0.74605-0.76442 0-1.35269-0.235249-1.76482-0.7041-0.41299-0.47132-0.6182-1.036409-0.6182-1.700204 0-0.529721 0.12142-0.945107 0.36425-1.246159 0.24369-0.301874 0.60794-0.546171 1.09361-0.735357-0.6943-0.461448-1.0423-1.085761-1.0423-1.873761 0-0.677779 0.24796-1.22395 0.74389-1.638513 0.49421-0.412919 1.17654-0.6202 2.04441-0.6202zm-51.140439 0.319477v5.439501c0 0.622668 0.02052 0.991992 0.06156 1.108793 0.04104 0.116802 0.153054 0.175203 0.336033 0.175203 0.194951 0 0.311237-0.06087 0.348004-0.181783 0.03309-0.108083 0.05164-0.432701 0.05501-0.973854l5.64e-4 -5.56786h2.630974v7.994332h-2.676292l0.04532-0.664618c-0.18298 0.269795-0.407002 0.471319-0.674631 0.606217-0.266774 0.13572-0.573736 0.203169-0.920884 0.203169-0.395886 0-0.723369-0.06498-0.984157-0.193299-0.259934-0.128317-0.452319-0.298584-0.576301-0.512446-0.123981-0.212217-0.200936-0.434305-0.230862-0.664618-0.03078-0.231958-0.04532-0.690117-0.04532-1.376943v-5.391794zm-19.793361 0v5.439501c0 0.622668 0.02052 0.991992 0.06156 1.108793 0.04104 0.116802 0.153053 0.175203 0.336033 0.175203 0.194951 0 0.311237-0.06087 0.348004-0.181783 0.03309-0.108083 0.05164-0.432701 0.05501-0.973854l5.64e-4 -5.56786h2.630974v7.994332h-2.676285l0.04532-0.664618c-0.18298 0.269795-0.407002 0.471319-0.674631 0.606217-0.266774 0.13572-0.573736 0.203169-0.920884 0.203169-0.395886 0-0.723369-0.06498-0.984157-0.193299-0.259934-0.128317-0.45232-0.298584-0.576301-0.512446-0.123982-0.212217-0.200936-0.434305-0.230862-0.664618-0.03078-0.231958-0.04532-0.690117-0.04532-1.376943v-5.391794zm38.44609 0v5.439501c0 0.622668 0.0214 0.991992 0.0624 1.108793 0.041 0.116802 0.15305 0.175203 0.33518 0.175203 0.1958 0 0.31209-0.06087 0.34886-0.181783 0.0331-0.108083 0.0516-0.432701 0.055-0.973854l5.6e-4 -5.56786h2.63098v7.994332h-2.67629l0.0453-0.664618c-0.18212 0.269795-0.40785 0.471319-0.67463 0.606217-0.26677 0.13572-0.57373 0.203169-0.92088 0.203169-0.39503 0-0.72337-0.06498-0.98416-0.193299-0.25993-0.128317-0.45232-0.298584-0.5763-0.512446-0.12398-0.212217-0.20093-0.434305-0.23086-0.664618-0.0274-0.206185-0.0419-0.591096-0.0448-1.156467l-5.4e-4 -5.61227zm48.42533 0v5.439501c0 0.622668 0.0205 0.991992 0.0624 1.108793 0.0402 0.116802 0.15219 0.175203 0.33517 0.175203 0.19581 0 0.31039-0.06087 0.34715-0.181783 0.0368-0.120092 0.0564-0.507511 0.0564-1.162259v-5.379455h2.63097v7.994332h-2.67715l0.0462-0.664618c-0.18298 0.269795-0.40701 0.471319-0.67378 0.606217-0.26763 0.13572-0.57459 0.203169-0.92174 0.203169-0.39589 0-0.72337-0.06498-0.98416-0.193299-0.25993-0.128317-0.45232-0.298584-0.5763-0.512446-0.12312-0.212217-0.20093-0.434305-0.23086-0.664618-0.0274-0.206185-0.0426-0.591096-0.0456-1.156467l-5.7e-4 -5.61227zm-144.59708 0v5.439501c0 0.622668 0.020521 0.991992 0.061563 1.108793 0.041042 0.116802 0.1530531 0.175203 0.3360329 0.175203 0.1949511 0 0.3112371-0.06087 0.3480041-0.181783 0.03309-0.108083 0.05164-0.432701 0.05501-0.973854l5.64e-4 -5.56786h2.630974v7.994332h-2.676292l0.04532-0.664618c-0.18298 0.269795-0.4070023 0.471319-0.6746315 0.606217-0.2667742 0.13572-0.5737355 0.203169-0.920884 0.203169-0.395886 0-0.7233684-0.06498-0.9841573-0.193299-0.2599315-0.128317-0.4523167-0.298584-0.5762983-0.512446-0.1239816-0.212217-0.2009357-0.434305-0.2308623-0.664618-0.0307816-0.231958-0.0453173-0.690117-0.0453173-1.376943v-5.391794zm64.93557-0.144604c0.737904 0 1.346697 0.12914 1.826377 0.388242 0.479681 0.259102 0.816569 0.602104 1.009809 1.030651 0.19324 0.426902 0.28986 1.029006 0.28986 1.803845v1.060263h-3.406501v1.728993c0 0.361098 0.02822 0.594702 0.08465 0.698342 0.05643 0.105286 0.165024 0.157929 0.325772 0.157929 0.199226 0 0.333468-0.06992 0.401016-0.208104 0.06669-0.13901 0.100041-0.407161 0.100041-0.804451v-1.054505h2.495022v0.590589c0 0.493528-0.03335 0.873545-0.100895 1.138405-0.06755 0.265682-0.224877 0.547816-0.471985 0.849691-0.247963 0.301052-0.561765 0.526429-0.941405 0.677778-0.379641 0.150526-0.856756 0.225378-1.429636 0.225378-0.55578 0-1.046576-0.07485-1.472389-0.22291-0.424957-0.148059-0.75586-0.35205-0.992707-0.611153-0.236848-0.259102-0.400162-0.543703-0.491651-0.855448-0.09149-0.310923-0.136808-0.764146-0.136808-1.358847v-2.331921c0-0.698342 0.101751-1.249448 0.306107-1.652496 0.204355-0.404693 0.538678-0.713971 1.002968-0.927833 0.46429-0.215507 0.998693-0.322438 1.602355-0.322438zm-20.646867 3.29e-4c0.890102 0 1.561313 0.144768 2.012776 0.43595 0.451465 0.291181 0.723369 0.648989 0.814004 1.072601 0.09149 0.423611 0.136807 1.296334 0.136807 2.617344v4.012383h-2.560006v-0.712326c-0.159893 0.286246-0.36767 0.500109-0.621618 0.642409-0.253949 0.143123-0.556634 0.214685-0.908913 0.214685-0.460015 0-0.882407-0.120092-1.266323-0.358631-0.383915-0.239361-0.5763-0.761678-0.5763-1.569419v-0.657215c0-0.597168 0.10175-1.005152 0.306106-1.222304 0.203501-0.217152 0.709688-0.469674 1.517706-0.759211 0.863596-0.31339 1.326175-0.524785 1.386883-0.631716 0.06071-0.109398 0.09149-0.329841 0.09149-0.663795 0-0.417031-0.0342-0.689294-0.100895-0.815966-0.06755-0.126672-0.17956-0.190009-0.336033-0.190009-0.177849 0-0.28815 0.05347-0.331758 0.160397-0.04361 0.106109-0.06498 0.381662-0.06498 0.827482v0.837353h-2.468519v-0.535478c0-0.618555 0.07695-1.095633 0.230862-1.431232 0.153908-0.335599 0.463435-0.630893 0.928579-0.88835 0.46429-0.256635 1.067952-0.384952 1.810132-0.384952zm-17.122114-3.29e-4c0.737904 0 1.346697 0.12914 1.826377 0.388242s0.816568 0.602104 1.009809 1.030651c0.19324 0.426902 0.28986 1.029006 0.28986 1.803845v1.060263h-3.406501v1.728993c0 0.361098 0.02822 0.594702 0.08465 0.698342 0.05643 0.105286 0.165024 0.157929 0.325773 0.157929 0.199225 0 0.333468-0.06992 0.401016-0.208104 0.06669-0.13901 0.10004-0.407161 0.10004-0.804451v-1.054505h2.495023v0.590589c0 0.493528-0.03335 0.873545-0.100895 1.138405-0.06755 0.265682-0.224877 0.547816-0.471985 0.849691-0.247964 0.301052-0.561765 0.526429-0.941406 0.677778-0.37964 0.150526-0.856755 0.225378-1.429635 0.225378-0.55578 0-1.046576-0.07485-1.472389-0.22291-0.424957-0.148059-0.75586-0.35205-0.992707-0.611153-0.236848-0.259102-0.400162-0.543703-0.491652-0.855448-0.09149-0.310923-0.136807-0.764146-0.136807-1.358847v-2.331921c0-0.698342 0.101751-1.249448 0.306106-1.652496 0.204356-0.404693 0.538679-0.713971 1.002969-0.927833 0.464289-0.215507 0.998693-0.322438 1.602355-0.322438zm111.08648 1.64e-4c0.57373 0 1.06025 0.06663 1.46298 0.201524 0.40102 0.134076 0.70969 0.312568 0.92431 0.532188 0.21461 0.222088 0.34458 0.426902 0.39075 0.615265 0.0462 0.189186 0.0684 0.483658 0.0684 0.885883v0.463916h-2.33256v-0.433482c0-0.370146-0.0214-0.604572-0.0676-0.702455-0.0453-0.0987-0.15904-0.148058-0.34116-0.148058-0.14878 0-0.25908 0.04524-0.33261 0.13572-0.0744 0.09048-0.11116 0.2262-0.11116 0.407161 0 0.244296 0.0188 0.424434 0.0556 0.538768 0.0376 0.115156 0.14792 0.240184 0.33261 0.376726 0.18384 0.136543 0.56348 0.335599 1.13636 0.596347 0.76441 0.345469 1.26546 0.671198 1.50402 0.97554 0.23941 0.305988 0.35827 0.74934 0.35827 1.331703 0 0.650635-0.0906 1.141695-0.27276 1.473182-0.18298 0.331486-0.48738 0.586475-0.9149 0.764968-0.42838 0.179315-0.94397 0.26815-1.54763 0.26815-0.66865 0-1.24068-0.09624-1.71608-0.289536-0.47541-0.192476-0.80203-0.453223-0.97988-0.783065-0.17871-0.329018-0.26763-0.827482-0.26763-1.493745v-0.385774h2.33171v0.505866c0 0.430192 0.0299 0.709858 0.0881 0.838175 0.059 0.128318 0.17443 0.192476 0.34885 0.192476 0.18555 0 0.31637-0.04277 0.39076-0.129962 0.0744-0.08554 0.11116-0.26815 0.11116-0.544526 0-0.381662-0.0487-0.621023-0.14365-0.717261-0.1009-0.09624-0.60965-0.381661-1.53053-0.855448-0.77296-0.401403-1.24495-0.766614-1.41425-1.093165-0.16844-0.328196-0.25395-0.715616-0.25395-1.165549 0-0.639119 0.0924-1.110438 0.27447-1.413135 0.18213-0.30352 0.4908-0.537123 0.92773-0.701632 0.43607-0.165332 0.94311-0.246765 1.52027-0.246765zm-27.86285 1.65e-4c0.8901 0 1.56131 0.144768 2.01277 0.43595 0.45147 0.291181 0.72337 0.648989 0.81401 1.072601 0.0906 0.423611 0.1368 1.296334 0.1368 2.617344v4.012383h-2.55915v-0.712326c-0.16074 0.286246-0.36852 0.500109-0.62332 0.642409-0.2531 0.143123-0.55578 0.214685-0.90806 0.214685-0.45916 0-0.88155-0.120092-1.26633-0.358631-0.38391-0.239361-0.5763-0.761678-0.5763-1.569419v-0.657215c0-0.597168 0.10261-1.005152 0.30611-1.222304s0.70969-0.469674 1.51771-0.759211c0.86359-0.31339 1.32617-0.524785 1.38688-0.631716 0.0616-0.109398 0.0915-0.329841 0.0915-0.663795 0-0.417031-0.0334-0.689294-0.1009-0.815966s-0.17956-0.190009-0.33603-0.190009c-0.17785 0-0.28815 0.05347-0.3309 0.160397-0.0436 0.106109-0.0658 0.381662-0.0658 0.827482v0.837353h-2.46852v-0.535478c0-0.618555 0.0778-1.095633 0.23087-1.431232 0.1539-0.335599 0.46343-0.630893 0.92858-0.88835 0.46429-0.256635 1.06795-0.384952 1.81013-0.384952zm58.22662 0c0.89011 0 1.56132 0.144768 2.01193 0.43595 0.45317 0.291181 0.72336 0.648989 0.81485 1.072601 0.0906 0.423611 0.13767 1.296334 0.13767 2.617344v4.012383h-2.56001v-0.712326c-0.16075 0.286246-0.36767 0.500109-0.62162 0.642409-0.25395 0.143123-0.55749 0.214685-0.90891 0.214685-0.46002 0-0.88241-0.120092-1.26718-0.358631-0.38391-0.239361-0.57544-0.761678-0.57544-1.569419v-0.657215c0-0.597168 0.10175-1.005152 0.30525-1.222304s0.70968-0.469674 1.5177-0.759211c0.8636-0.31339 1.32618-0.524785 1.3886-0.631716 0.0599-0.109398 0.0898-0.329841 0.0898-0.663795 0-0.417031-0.0333-0.689294-0.10004-0.815966-0.0684-0.126672-0.18042-0.190009-0.33604-0.190009-0.1787 0-0.289 0.05347-0.33175 0.160397-0.0436 0.106109-0.0658 0.381662-0.0658 0.827482v0.837353h-2.46766v-0.535478c0-0.618555 0.0769-1.095633 0.23-1.431232 0.15477-0.335599 0.46429-0.630893 0.92858-0.88835 0.46429-0.256635 1.06881-0.384952 1.81013-0.384952zm-129.88328-4.94e-4c0.447189 0 0.817423 0.100351 1.109849 0.30023 0.293281 0.202347 0.48139 0.447465 0.56433 0.738647 0.08208 0.291182 0.123126 0.764968 0.123126 1.419716v5.680508h-2.553165v-5.211657c0-0.681891-0.0248-1.105502-0.07439-1.267544-0.05045-0.162864-0.165879-0.244297-0.348859-0.244297-0.1864 0-0.306961 0.08061-0.361684 0.241007-0.05387 0.160396-0.08123 0.58483-0.08123 1.270834v5.211657h-2.553166v-5.078404c0-0.783887-0.02052-1.253561-0.06156-1.410668-0.04104-0.155461-0.155618-0.234426-0.342018-0.234426-0.117142 0-0.217182 0.04113-0.299266 0.123382-0.08294 0.08226-0.128257 0.182606-0.136808 0.301875-0.0085 0.117624-0.01368 0.370146-0.01368 0.755098v5.543143h-2.553166v-7.994332h2.599338l-0.04617 0.760033c0.204356-0.301052 0.447189-0.528075 0.730209-0.678601 0.282165-0.151349 0.602807-0.226201 0.963636-0.226201 0.703702 0 1.256917 0.301053 1.660498 0.904802 0.221457-0.301052 0.47113-0.528075 0.74902-0.678601 0.27789-0.151349 0.586561-0.226201 0.925159-0.226201zm13.709371 0c0.452319 0 0.820844 0.09788 1.107284 0.295295 0.28644 0.196589 0.47113 0.444998 0.554069 0.743582 0.08208 0.299407 0.123127 0.798693 0.123127 1.497035v5.603189h-2.630975v-5.536563c0-0.550283-0.01967-0.885882-0.05814-1.005974-0.03933-0.120915-0.147923-0.180961-0.325772-0.180961-0.187255 0-0.304397 0.06909-0.352279 0.208105-0.0418 0.122833-0.06536 0.428943-0.07008 0.918328l-8.86e-4 5.597065h-2.63183v-7.994332h2.677147l-0.04532 0.736179c0.190675-0.293649 0.424102-0.513269 0.700282-0.660505 0.275325-0.147236 0.593402-0.220443 0.953376-0.220443zm124.32857 0c0.45232 0 0.8217 0.09788 1.10728 0.295295 0.2873 0.196589 0.47113 0.444998 0.55407 0.743582 0.0821 0.299407 0.12398 0.798693 0.12398 1.497035v5.603189h-2.63183v-5.536563c0-0.550283-0.0188-0.885882-0.059-1.005974-0.0385-0.120915-0.14706-0.180961-0.32577-0.180961-0.1864 0-0.30354 0.06909-0.35057 0.208105-0.0479 0.138188-0.0718 0.508334-0.0718 1.110438v5.404955h-2.63183v-7.994332h2.67715l-0.0453 0.736179c0.19067-0.293649 0.4241-0.513269 0.70028-0.660505 0.27533-0.147236 0.59255-0.220443 0.95338-0.220443zm-15.03333 0.144769 0.74047 5.837614c0.0582-0.430192 0.15733-1.475649 0.2967-3.138016 0.0752-0.927833 0.16075-1.827699 0.25566-2.699598h2.34967l-1.23041 7.994332h-3.439l-1.32275-7.994332zm-75.654928-0.144769v2.81311c-0.481391 0-0.83538 0.06005-1.061112 0.180961-0.226587 0.120091-0.365104 0.287891-0.417262 0.502576-0.05216 0.215507-0.07781 0.709858-0.07781 1.485519v3.156935h-2.63183v-7.994332h2.63183l-0.104316 1.050392c0.382206-0.75263 0.93542-1.150743 1.6605-1.195161zm35.965608-0.921992v1.259319h0.70968v1.264254h-0.70968v4.278889c0 0.525607 0.0291 0.819256 0.0881 0.878479 0.059 0.06087 0.30268 0.09048 0.73191 0.09048v1.289753h-1.06025c-0.59939 0-1.02691-0.02385-1.28428-0.06909-0.25566-0.04688-0.48139-0.152994-0.67634-0.319971-0.19581-0.166154-0.31722-0.357807-0.36596-0.57167-0.047-0.215507-0.071-0.719728-0.071-1.515131v-4.061736h-0.56689v-1.264254h0.56689v-1.259322zm-102.75731 0.921992c0.452319 0 0.820844 0.09788 1.107284 0.295295 0.28644 0.196589 0.47113 0.444998 0.554069 0.743582 0.08208 0.299407 0.123127 0.798693 0.123127 1.497035v5.603189h-2.630975v-5.536563c0-0.550283-0.01967-0.885882-0.05814-1.005974-0.03933-0.120915-0.147923-0.180961-0.325772-0.180961-0.187255 0-0.304397 0.06909-0.352279 0.208105-0.04703 0.138188-0.07097 0.508334-0.07097 1.110438v5.404955h-2.63183v-7.994332h2.677147l-0.04532 0.736179c0.190675-0.293649 0.424103-0.513269 0.700282-0.660505 0.275325-0.147236 0.593402-0.220443 0.953376-0.220443zm99.154831 0v2.81311c-0.48054 0-0.83452 0.06005-1.06111 0.180961-0.22659 0.120091-0.36511 0.287891-0.41641 0.502576-0.0522 0.215507-0.0787 0.709858-0.0787 1.485519v3.156935h-2.63098v-7.994332h2.63098l-0.10346 1.050392c0.38135-0.75263 0.93542-1.150743 1.65964-1.195161zm-106.13046 0c0.452319 0 0.820844 0.09788 1.107284 0.295295 0.28644 0.196589 0.47113 0.444998 0.55407 0.743582 0.08208 0.299407 0.123126 0.798693 0.123126 1.497035v5.603189h-2.630975v-5.536563c0-0.550283-0.01967-0.885882-0.05814-1.005974-0.03933-0.120915-0.147922-0.180961-0.325772-0.180961-0.187255 0-0.304396 0.06909-0.352279 0.208105-0.0418 0.122833-0.06536 0.428943-0.07008 0.918328l-8.86e-4 5.597065h-2.631835v-7.994332h2.677147l-0.04532 0.736179c0.190676-0.293649 0.424103-0.513269 0.700283-0.660505 0.275324-0.147236 0.593401-0.220443 0.953375-0.220443zm174.44722-1.614412v9.752937h-2.70878v-9.752937zm-179.67668 1.758605v7.994332h-2.709638v-7.994332zm151.9048 0v7.994332h-2.70963v-7.994332zm-55.81018-1.758605v2.193732c0.22573-0.192476 0.46942-0.338067 0.73192-0.434305 0.26336-0.09706 0.54381-0.144768 0.84393-0.144768 0.46001 0 0.85248 0.107754 1.17569 0.324084 0.32321 0.217152 0.52072 0.468029 0.59169 0.750985 0.0718 0.282956 0.10859 0.800338 0.10859 1.551323v5.511886h-2.63183v-5.62622c0-0.466384-0.0248-0.765791-0.0752-0.897398-0.0505-0.133253-0.16161-0.199057-0.33518-0.199057-0.16075 0-0.26934 0.06827-0.32577 0.204814-0.0564 0.136543-0.0838 0.407984-0.0838 0.813499v5.704362h-2.63183v-9.752937zm-31.550661 0v9.752937h-2.709639v-9.752937zm80.052771 0v9.752937h-2.70964v-9.752937zm3.65361 0v9.752937h-2.70964v-9.752937zm35.07995 0v9.752937h-2.70878v-9.752937zm3.98673 3.030098c-0.17357 0-0.28558 0.06005-0.33603 0.180137-0.0496 0.120915-0.0752 0.412096-0.0752 0.873545v3.314041c0 0.482012 0.0274 0.782242 0.0787 0.903156 0.0522 0.120092 0.16503 0.181783 0.33945 0.181783 0.16845 0 0.27362-0.05593 0.31552-0.166154 0.0419-0.110222 0.0616-0.378372 0.0616-0.804451v-3.428375c0-0.493528-0.0197-0.792935-0.0581-0.897398-0.0402-0.104464-0.14878-0.156284-0.32578-0.156284zm-25.45401 2.922097c-0.42069 0.285424-0.66437 0.523962-0.73278 0.716438-0.0676 0.192476-0.10089 0.469674-0.10089 0.831595 0 0.413741 0.0299 0.680246 0.0881 0.800338 0.059 0.120914 0.17443 0.181783 0.348 0.181783 0.16588 0 0.27276-0.04688 0.32235-0.142301 0.0504-0.09377 0.0752-0.342179 0.0752-0.743582zm-79.348732-2.922591c-0.147923 0-0.247964 0.05511-0.299266 0.162864-0.05216 0.108577-0.07866 0.355341-0.07866 0.741115v3.560805c0 0.430192 0.02651 0.701632 0.07866 0.815966 0.0513 0.114334 0.158183 0.171913 0.318932 0.171913 0.152198 0 0.253948-0.05922 0.306106-0.178493 0.05216-0.117624 0.07781-0.375904 0.07781-0.774017v-3.596174c0-0.353695-0.02907-0.592234-0.08807-0.717261-0.05814-0.123382-0.163313-0.186718-0.315512-0.186718zm-44.979409 2.922591c-0.421537 0.285424-0.665225 0.523962-0.732774 0.716438-0.06755 0.192476-0.100895 0.469674-0.100895 0.831595 0 0.413741 0.02907 0.680246 0.08722 0.800338 0.059 0.120914 0.175284 0.181783 0.348858 0.181783 0.165024 0 0.27276-0.04688 0.322352-0.142301 0.05045-0.09377 0.07524-0.342179 0.07524-0.743582zm-51.193194-2.922591c-0.1479229 0-0.2479632 0.05511-0.2992659 0.162864-0.052158 0.108577-0.078664 0.355341-0.078664 0.741115v3.560805c0 0.430192 0.026506 0.701632 0.078664 0.815966 0.051303 0.114334 0.1581834 0.171913 0.3189319 0.171913 0.1521981 0 0.2539485-0.05922 0.3061063-0.178493 0.052158-0.117624 0.077809-0.375904 0.077809-0.774017v-3.596174c0-0.353695-0.029071-0.592234-0.08807-0.717261-0.0581427-0.123382-0.1633132-0.186718-0.3155113-0.186718zm117.29471 2.922591c-0.42068 0.285424-0.66523 0.523962-0.73277 0.716438-0.0675 0.192476-0.1009 0.469674-0.1009 0.831595 0 0.413741 0.0291 0.680246 0.0872 0.800338 0.059 0.120914 0.17529 0.181783 0.34886 0.181783 0.16588 0 0.27276-0.04688 0.32235-0.142301 0.0504-0.09377 0.0753-0.342179 0.0753-0.743582zm17.68268 0.842288c-0.32663 0.273908-0.48823 0.569202-0.48823 0.886705 0 0.228668 0.0504 0.400581 0.1522 0.514915 0.10175 0.114334 0.25224 0.171912 0.45232 0.171912 0.21205 0 0.45574-0.08637 0.73277-0.257457zm-101.11494-3.764303c-0.18298 0-0.295846 0.051-0.339454 0.152994-0.04361 0.102818-0.06498 0.379194-0.06498 0.828304v0.584831h0.768686v-0.584831c0-0.412918-0.02394-0.680246-0.07097-0.80116-0.04874-0.120092-0.146213-0.180138-0.29328-0.180138zm37.768981 0c-0.18298 0-0.295846 0.051-0.339453 0.152994-0.04361 0.102818-0.06498 0.379194-0.06498 0.828304v0.584831h0.768686v-0.584831c0-0.412918-0.02394-0.680246-0.07097-0.80116-0.04874-0.120092-0.146213-0.180138-0.29328-0.180138zm63.553734-0.277692c-0.14365 0-0.25139 0.04442-0.32492 0.134075-0.0735 0.08801-0.1103 0.22291-0.1103 0.404693 0 0.379194 0.1616 0.729599 0.48737 1.052038 0.29585-0.359453 0.44377-0.701633 0.44377-1.028184 0-0.140655-0.0436-0.269795-0.13082-0.387419-0.0864-0.115979-0.20778-0.175203-0.3651-0.175203zm-121.52684-2.752488v1.270835h-2.709638v-1.270835zm151.9048 0v1.270835h-2.70963v-1.270835z" fill="#6c757d" opacity=".6"/>
   </g>
  </g>
 </g>
 <metadata id="metadata922">
  <rdf:RDF>
   <cc:Work rdf:about="">
    <dc:title>qe-logo</dc:title>
   </cc:Work>
  </rdf:RDF>
 </metadata>
</svg>
