<svg width="1243" height="2078" viewBox="0 0 1243 2078" fill="none" xmlns="http://www.w3.org/2000/svg">
<path d="M1242 1C1234.83 52.3333 1016.5 33 1075.5 98C1132.42 160.712 941 122.5 900.5 201C860 279.5 1001.15 658.5 956.149 719C911.149 779.5 545.649 533 578.149 638.5C610.649 744 669.5 906.5 489 807.5C454.766 788.724 75.5 694.5 128 813.5C180.5 932.5 347.149 1070 199.149 1146C51.1492 1222 -77.8504 1273 59.1496 1407C196.15 1541 420.149 1669 321.649 1730.5C223.149 1792 -13.3512 1957.5 59.1496 2077" stroke="#00FF00"/>
</svg>
