<svg width="1357" height="3905" viewBox="0 0 1357 3905" fill="none" xmlns="http://www.w3.org/2000/svg">
<path d="M1356 1C1211.5 8.83333 896.501 19 959 92.5C1002.03 143.105 1217 352 1131 451C1045 550 966.499 569.5 1036 623C1105.5 676.5 1206.5 743.5 1107.5 742C1008.5 740.5 199.499 359.5 212.499 451C225.499 542.5 519.501 667 426.501 742C333.501 817 92.5007 973 130.501 1068C168.501 1163 346.5 1167 322.5 1209C298.5 1251 99.1448 1284.79 53.4997 1349.5C-25.4994 1461.5 831.001 1843.5 157.5 2204C-51.1153 2315.66 1.06656 2627.83 145 2757C281.499 2879.5 -175.5 3036 80.4995 3301.5C336.5 3567 -64.9994 3565 17.0006 3660.5C99.0006 3756 494.001 3668.5 393.501 3772.5C293.001 3876.5 229.001 3873 245.501 3904" stroke="#00FF00"/>
</svg>
