<?xml version="1.0" encoding="utf-8"?>
<!-- Generator: Adobe Illustrator 25.4.1, SVG Export Plug-In . SVG Version: 6.00 Build 0)  -->
<svg version="1.1" id="Layer_1" xmlns="http://www.w3.org/2000/svg" xmlns:xlink="http://www.w3.org/1999/xlink" x="0px" y="0px"
	 viewBox="0 0 1190 3441" style="enable-background:new 0 0 1190 3441;" xml:space="preserve">
<style type="text/css">
	.st0{fill:none;stroke:#00FF00;}
</style>
<path class="st0" d="M1081.5,0.5c-7.2,51.3,143.5,144,99,190.5c-58.6,61.2-242.5,84.5-283,163S1001,816,956,876.5
	c-45,60.5-410.5-186-378-80.5s-101.5,87-140,80.5S89.5,767,142,886c52.5,119,205,341.5,57,417.5c-148,76-277,127-140,261
	c137,134,361,262,262.5,323.5s-335,227-262.5,346.5c72.5,119.5,170.6,141.3,262.5,160.5c64.5,13.5,170,144,110,329.5
	C358,2951.8,937,3042,850,3157.5s-630.5,137-452,282.5"/>
</svg>
