<svg width="906" height="2953" viewBox="0 0 906 2953" fill="none" xmlns="http://www.w3.org/2000/svg">
<path d="M421 1C531.5 180.5 827.001 152 845.001 201C863.001 250 628.501 340 721.001 429C813.501 518 1014.5 844.5 830.001 868C645.501 891.5 104.5 669 178 810.5C251.5 952 310.001 943.5 236.501 1007.5C163.001 1071.5 481.5 1097.5 462.5 1141.5C443.5 1185.5 -30.5005 1209.5 91.9995 1391.5C256.499 1567.5 75.0003 1605.5 113 1656C73.6669 1658.83 -3.79975 1676.9 1.00025 1726.5C7.00025 1788.5 216 1875 198 1959C180 2043 74.9998 2170.5 94 2218C113 2265.5 461 2361 411.5 2430C371.9 2485.2 668.333 2588.67 821.499 2633.5C693.833 2659 436.799 2722 429.999 2770C421.499 2830 513.999 2855.5 500.499 2881C486.999 2906.5 114.499 2915 100.999 2952" stroke="#00FF00"/>
</svg>
