<svg width="1162" height="4350" viewBox="0 0 1162 4350" fill="none" xmlns="http://www.w3.org/2000/svg">
<path d="M418.828 1C495.559 117.02 893.961 183.447 950.5 301C1007.04 418.553 866.442 479.781 872.5 605C878.557 730.219 1142.15 1070.03 943 1008C882 989 316.798 780.293 390.5 974C464.202 1167.71 38.708 1185.22 71.5206 1298.17C104.333 1411.12 -6 1451 28.5 1514.5C61.4207 1575.09 287.476 1598.11 342.5 1708C397.524 1817.89 813.104 1833.94 768 1964.5C741.055 2042.5 -49.1287 2124.11 54.3571 2349.5C157.843 2574.9 36.6891 2512.54 3.87652 2590.74C-28.936 2668.94 232.05 2823.29 123.516 2972.53C14.9823 3121.78 508.338 3174.16 403.5 3279C273.5 3409 147.244 3527.59 123.516 3648.21C99.7887 3768.83 775.351 3790.13 737.49 3928.13C699.629 4066.12 1197.88 4001.21 1158.5 4083.5C789.719 4318 -8.49998 4178 65 4289C138.5 4400 404 4245 381.5 4349.5" stroke="#00FF00"/>
</svg>
