<svg width="1265" height="1048" viewBox="0 0 1265 1048" fill="none" xmlns="http://www.w3.org/2000/svg">
<path d="M236.859 915.508L237.301 915.741L237.294 915.754L237.286 915.767L236.859 915.508ZM321.802 877.668L321.664 878.148L321.802 877.668ZM470.124 880.512L469.827 880.11L470.124 880.512ZM698.012 835.161L698.24 834.716L698.012 835.161ZM883 255L883.238 255.44L883 255ZM0.935913 1046.21C136.549 1028.73 214.458 951.567 236.431 915.25L237.286 915.767C215.163 952.334 136.992 1029.69 1.06384 1047.2L0.935913 1046.21ZM236.416 915.276C241.183 906.2 251.166 893.426 265.65 884.544C280.15 875.652 299.164 870.661 321.939 877.187L321.664 878.148C299.195 871.71 280.468 876.63 266.173 885.396C251.863 894.172 241.997 906.801 237.301 915.741L236.416 915.276ZM321.939 877.187C350.216 885.29 378.425 892.516 403.967 894.461C429.51 896.406 452.309 893.063 469.827 880.11L470.422 880.914C452.626 894.073 429.542 897.411 403.891 895.458C378.238 893.505 349.942 886.252 321.664 878.148L321.939 877.187ZM469.827 880.11C487.501 867.041 521.668 843.978 562.87 830.036C604.074 816.092 652.369 811.252 698.24 834.716L697.785 835.606C652.241 812.31 604.249 817.089 563.191 830.983C522.131 844.877 488.061 867.87 470.422 880.914L469.827 880.11ZM698.24 834.716C721.104 846.411 749.385 862.43 780.492 879.87C811.604 897.313 845.551 916.182 879.764 933.589C913.978 950.997 948.448 966.937 980.607 978.525C1012.77 990.116 1042.59 997.339 1067.5 997.339V998.339C1042.42 998.339 1012.47 991.072 980.268 979.466C948.054 967.858 913.542 951.897 879.31 934.48C845.078 917.063 811.115 898.185 780.003 880.742C748.886 863.296 720.627 847.29 697.785 835.606L698.24 834.716ZM1067.5 997.339C1082.05 997.339 1092.78 995.104 1100.21 990.925C1107.63 986.761 1111.8 980.649 1113.26 972.792C1114.72 964.907 1113.44 955.236 1109.84 943.986C1106.26 932.742 1100.37 919.964 1092.68 905.883C1061.87 849.536 1002.2 772.652 944.947 690.368C887.727 608.127 832.946 520.512 812.065 442.819C801.623 403.965 799.647 367.547 810.122 335.505C820.601 303.449 843.524 275.833 882.761 254.56L883.238 255.44C844.191 276.609 821.461 304.038 811.072 335.816C800.679 367.608 802.618 403.814 813.031 442.559C833.861 520.064 888.543 607.549 945.768 689.796C1002.96 772.001 1062.72 848.995 1093.55 905.404C1101.27 919.513 1107.18 932.353 1110.8 943.682C1114.41 955.003 1115.74 964.857 1114.24 972.974C1112.73 981.118 1108.38 987.485 1100.7 991.797C1093.05 996.096 1082.13 998.339 1067.5 998.339V997.339ZM882.761 254.56C945.407 220.597 1006.56 192.744 1060.87 168.82C1115.19 144.891 1162.65 124.903 1197.95 106.655C1215.59 97.5325 1230.18 88.8563 1241.05 80.3542C1251.93 71.8453 1259.04 63.5527 1261.81 55.2142C1264.58 46.9175 1263.08 38.4965 1256.56 29.6313C1250.03 20.7427 1238.46 11.4302 1221.14 1.43307L1221.64 0.56693C1239.01 10.5896 1250.71 19.9853 1257.37 29.039C1264.04 38.1159 1265.65 46.871 1262.76 55.5302C1259.89 64.1474 1252.6 72.5902 1241.67 81.1419C1230.72 89.7004 1216.07 98.41 1198.4 107.544C1163.07 125.81 1115.57 145.819 1061.27 169.735C1006.97 193.656 945.847 221.496 883.238 255.44L882.761 254.56Z" fill="#00FF00"/>
</svg>
